<?xml version="1.0" encoding="UTF-8" standalone="no"?>
<svg width="24px" height="24px" viewBox="0 0 24 24" version="1.1" xmlns="http://www.w3.org/2000/svg" xmlns:xlink="http://www.w3.org/1999/xlink" xmlns:sketch="http://www.bohemiancoding.com/sketch/ns">
    <!-- Generator: Sketch 3.3.1 (12005) - http://www.bohemiancoding.com/sketch -->
    <title>Artboard 1</title>
    <desc>Created with Sketch.</desc>
    <defs>
        <filter x="-50%" y="-50%" width="200%" height="200%" filterUnits="objectBoundingBox" id="filter-1">
            <feOffset dx="0" dy="1" in="SourceAlpha" result="shadowOffsetOuter1"></feOffset>
            <feGaussianBlur stdDeviation="0" in="shadowOffsetOuter1" result="shadowBlurOuter1"></feGaussianBlur>
            <feColorMatrix values="0 0 0 0 0   0 0 0 0 0   0 0 0 0 0  0 0 0 0.14521909 0" in="shadowBlurOuter1" type="matrix" result="shadowMatrixOuter1"></feColorMatrix>
            <feMerge>
                <feMergeNode in="shadowMatrixOuter1"></feMergeNode>
                <feMergeNode in="SourceGraphic"></feMergeNode>
            </feMerge>
        </filter>
    </defs>
    <g id="Page-1" stroke="none" stroke-width="1" fill="none" fill-rule="evenodd" sketch:type="MSPage">
        <g id="Artboard-1" sketch:type="MSArtboardGroup" filter="url(#filter-1)" fill="#FFFFFF">
            <path d="M12.2773077,3.40404412 L20.7307906,18.5997899 C21.0367094,19.1321008 20.8001175,19.8624055 19.9869017,19.8624055 L2.94128205,19.8624055 C2.46809829,19.8624055 2.09615385,19.4977941 2.09615385,19.0314811 C2.09615385,18.8984034 2.13246795,18.7328676 2.19739316,18.6322479 L10.6519765,3.40404412 C10.856656,3.00481092 11.0921474,2.80357143 11.4640919,2.80357143 C11.8360363,2.80357143 12.0726282,3.00481092 12.2773077,3.40404412 L12.2773077,3.40404412 Z M11.4310791,6.09589286 L4.90444444,17.9333193 L18.058953,17.9333193 L11.4310791,6.09589286 L11.4310791,6.09589286 Z M12.4797863,9.68790966 C12.4797863,9.85452731 12.4797863,10.021145 12.4445726,10.4192962 C12.2431944,11.8831513 12.0066026,13.2139286 12.0066026,14.7091597 L11.0591346,14.7091597 C11.0591346,13.2139286 10.7895299,11.8831513 10.5166239,10.4192962 C10.4505983,10.021145 10.4847115,9.82098739 10.4847115,9.68790966 C10.4847115,9.15668067 10.9248825,8.92298319 11.4982051,8.92298319 C12.0396154,8.92298319 12.4797863,9.15668067 12.4797863,9.68790966 L12.4797863,9.68790966 Z M12.378547,16.2714706 C12.378547,16.7702416 11.9702885,17.1683929 11.4982051,17.1683929 C10.9909081,17.1683929 10.5848504,16.7702416 10.5848504,16.2714706 C10.5848504,15.7726996 10.9909081,15.4070063 11.4982051,15.4070063 C11.9702885,15.4070063 12.378547,15.7726996 12.378547,16.2714706 L12.378547,16.2714706 Z" id="Imported-Layers-Copy" sketch:type="MSShapeGroup"></path>
        </g>
    </g>
</svg>