<?xml version="1.0" encoding="utf-8"?>
<!-- Generator: Adobe Illustrator 19.2.1, SVG Export Plug-In . SVG Version: 6.00 Build 0)  -->
<!DOCTYPE svg PUBLIC "-//W3C//DTD SVG 1.1//EN" "http://www.w3.org/Graphics/SVG/1.1/DTD/svg11.dtd">
<svg version="1.1" id="Layer_1" xmlns="http://www.w3.org/2000/svg" xmlns:xlink="http://www.w3.org/1999/xlink" x="0px" y="0px"
	 viewBox="0 0 949 104" style="enable-background:new 0 0 949 104;" xml:space="preserve">
<style type="text/css">
	.st0{fill:#C2D3E7;}
	.st1{fill:#C9D5E6;}
	.st2{fill:#D2DCE9;}
	.st3{fill:#DAE4EF;}
	.st4{fill:#9EB3CD;}
	.st5{fill:#D3E0E8;}
	.st6{fill:#CEDAE5;}
	.st7{fill:#E9EDF6;}
	.st8{fill:#BACBDF;}
	.st9{fill:#98AFCC;}
	.st10{fill:#DFE6F4;}
	.st11{fill:#BED0E3;}
	.st12{fill:#E1E6F2;}
	.st13{fill:#D9DFF3;}
	.st14{fill:#D0DAE3;}
	.st15{fill:#93A8C9;}
	.st16{fill:#C4D1E5;}
	.st17{fill:#9DB2CF;}
	.st18{fill:#DEE5EF;}
	.st19{fill:#95ACCE;}
	.st20{fill:#ABBDD2;}
	.st21{fill:#FCFDFF;}
	.st22{fill:#DEE7F0;}
	.st23{fill:#EFF8FC;}
	.st24{fill:#A1B5CF;}
	.st25{fill:#CCD8E6;}
	.st26{fill:#D0DDE6;}
	.st27{fill:#ABBED3;}
	.st28{fill:#C1D3E4;}
	.st29{fill:#A3B4CA;}
	.st30{fill:#BECBD4;}
	.st31{fill:#BDCDE1;}
	.st32{fill:#D4DCEA;}
	.st33{fill:#99B2CF;}
	.st34{fill:#A9BED7;}
	.st35{fill:#9BB4CF;}
	.st36{fill:#B8CADB;}
	.st37{fill:#91ACCA;}
	.st38{fill:#8BA2C6;}
	.st39{fill:#D3DBE5;}
	.st40{fill:#A7BED2;}
	.st41{fill:#E1E8F2;}
	.st42{fill:#F3F6FD;}
	.st43{fill:#DCE6F3;}
	.st44{fill:#D2DAE4;}
	.st45{fill:#9DB5CD;}
	.st46{fill:#B6C3D4;}
	.st47{fill:#9CB0C9;}
	.st48{fill:#CCD6DF;}
	.st49{fill:#90A6C2;}
	.st50{fill:#B7C8DC;}
	.st51{fill:#A0B2C7;}
	.st52{fill:#CCD0DC;}
	.st53{fill:#6580A0;}
</style>
<g>
	<polygon class="st0" points="164.9,35.1 166.8,24.2 187,21 	"/>
	<g>
		<polygon class="st1" points="13.4,104 5.7,83.3 1.1,92.1 1.6,104 		"/>
		<path class="st2" d="M25.7,72.1c-0.4-0.1-20,11.2-20,11.2l7.7,20.7h14.3L25.7,72.1z"/>
		<polygon class="st3" points="25.7,72 43.1,75.7 26.4,90.5 		"/>
		<polygon class="st4" points="43.1,75.7 46,90.4 26.4,90.5 		"/>
		<path class="st5" d="M27.6,103.8c0,0,19-13.6,18.4-13.5c-0.6,0.1-19.6,0.1-19.6,0.1L27.6,103.8z"/>
		<polygon class="st6" points="43.1,75.7 59.1,86.9 46,90.4 		"/>
		<path class="st7" d="M63.4,97.5c0,0-3.5-10.9-4.3-10.6C58.4,87.2,46,90.4,46,90.4L63.4,97.5z"/>
		<polygon class="st8" points="46,90.5 63.4,97.6 46.3,104 27.6,104 		"/>
		<polygon class="st9" points="46.3,104 63.4,97.4 65.9,104 		"/>
		<polygon class="st10" points="63.4,97.3 71,93.2 73.4,104 65.9,104 		"/>
		<polygon class="st11" points="68.2,72.3 69.7,84.7 71,93.1 73.4,104 92.2,104 91.2,90.5 		"/>
		<polygon class="st12" points="68.2,72.3 79.4,56 91.2,90.4 		"/>
		<path class="st13" d="M79.4,56l0.9-1.9c0,0,9.9,4.7,15.4,1.8s5-4.7,5-4.7l-9.6,39.3L79.4,56z"/>
		<polygon class="st14" points="92.2,104 91.2,90.5 153.4,104 		"/>
		<polygon class="st15" points="91.2,90.4 100.7,51.1 112.5,76.1 		"/>
		<polygon class="st16" points="100.7,51.1 105,41 124.6,43.2 		"/>
		<polygon class="st17" points="112.5,76.1 124.6,43.2 100.7,51.1 		"/>
		<polygon class="st18" points="91.2,90.4 112.5,76.1 131.6,75.7 153.4,103.8 		"/>
		<polygon class="st19" points="112.5,76.1 134.9,60.4 136,61.7 131.6,75.7 		"/>
		<polygon class="st20" points="112.5,76.1 124.6,43.2 134.9,60.4 		"/>
		<polygon class="st21" points="131.6,75.7 136,61.7 137.5,60.4 148.6,73.2 		"/>
		<polygon class="st22" points="137.5,60.4 149.5,52.1 161.4,53.4 148.6,73.2 		"/>
		<polygon class="st23" points="157.8,82.8 148.6,73.2 161.4,53.4 		"/>
		<polygon class="st24" points="153.4,103.8 148.6,73.2 157.8,82.8 		"/>
		<polygon class="st25" points="148.6,73.2 131.6,75.7 153.4,103.8 		"/>
		<polygon class="st26" points="157.8,82.8 161.4,53.4 185.6,89.3 		"/>
		<polygon class="st27" points="157.8,82.9 185.6,89.4 176.6,104 172.8,104 		"/>
		<polygon class="st28" points="153.4,104 157.8,83 172.8,104 		"/>
		<polygon class="st29" points="161.6,50.8 160,38.6 164.9,35.1 		"/>
		<polygon class="st30" points="160,38.6 166.8,24.2 164.9,35.1 		"/>
		<polygon class="st28" points="161.4,53.4 161.6,50.8 164.9,35.1 190.3,50.6 		"/>
		<polygon class="st31" points="190.4,50.3 190.5,21 187,21 164.9,35.1 189.9,50.4 		"/>
		<polygon class="st32" points="190.4,50.3 190.5,21 208.8,32.7 		"/>
		<polygon class="st33" points="208.8,32.7 223.6,42.2 190.4,50.3 		"/>
		<polygon class="st34" points="185.6,89.3 190.4,50.3 161.4,53.4 		"/>
		<polygon class="st35" points="190.4,50.3 185.6,89.3 206.1,76.6 		"/>
		<polygon class="st36" points="190.4,50.3 223.6,42.2 230.8,54.9 220.4,53.9 		"/>
		<path class="st37" d="M230.6,54.6l-24.5,22l-15.7-26.3C190.4,50.3,230.5,55,230.6,54.6z"/>
		<polygon class="st38" points="226.8,79.7 230.6,54.6 206.1,76.6 		"/>
		<polygon class="st39" points="230.6,54.6 243,73.2 226.8,79.7 		"/>
		<polygon class="st39" points="230.6,54.6 243,73.2 226.8,79.7 		"/>
		<polygon class="st40" points="230.6,54.6 242.7,60.2 243,73.2 		"/>
		<polygon class="st41" points="185.6,89.5 192.3,104 176.6,104 		"/>
		<polygon class="st42" points="185.6,89.4 206.1,76.7 202.2,104 192.3,104 		"/>
		<polygon class="st43" points="206.1,76.7 226.8,79.7 225,80.7 226.3,81.8 210.8,104 202.2,104 		"/>
		<path class="st44" d="M226.3,81.7"/>
		<polygon class="st44" points="227.5,81.9 232.8,104 210.8,104 226.3,81.5 		"/>
		<polygon class="st45" points="232.8,104 234.7,104 233.2,84.4 226.3,81.5 		"/>
		<polygon class="st46" points="234.7,104 240,104 243.8,91 233.2,84.5 		"/>
		<polygon class="st47" points="243.8,91 253.2,104 240,104 		"/>
		<polygon class="st48" points="243.8,91 257.1,77.1 262.9,104 253.2,104 		"/>
		<polygon class="st49" points="262.9,104 257.1,77.2 279.2,104 		"/>
		<polygon class="st50" points="257.1,77.1 279.2,56.9 282.9,104 279.2,104 		"/>
		<polygon class="st51" points="307.6,54.2 279.2,56.9 282.9,104 286,104 		"/>
		<polygon class="st52" points="307.6,54.2 328.1,69.7 289.5,104 286,104 		"/>
		<polygon class="st53" points="328.1,69.8 333.8,104 289.5,104 		"/>
	</g>
</g>
<g>
	<polygon class="st0" points="483.9,35.1 485.8,24.2 506,21 	"/>
	<g>
		<polygon class="st1" points="332.4,104 324.7,83.3 320.1,92.1 320.6,104 		"/>
		<path class="st2" d="M344.7,72.1c-0.4-0.1-20,11.2-20,11.2l7.7,20.7h14.3L344.7,72.1z"/>
		<polygon class="st3" points="344.7,72 362.1,75.7 345.4,90.5 		"/>
		<polygon class="st4" points="362.1,75.7 365,90.4 345.4,90.5 		"/>
		<path class="st5" d="M346.6,103.8c0,0,19-13.6,18.4-13.5c-0.6,0.1-19.6,0.1-19.6,0.1L346.6,103.8z"/>
		<polygon class="st6" points="362.1,75.7 378.1,86.9 365,90.4 		"/>
		<path class="st7" d="M382.4,97.5c0,0-3.5-10.9-4.3-10.6c-0.7,0.3-13.1,3.5-13.1,3.5L382.4,97.5z"/>
		<polygon class="st8" points="365,90.5 382.4,97.6 365.3,104 346.6,104 		"/>
		<polygon class="st9" points="365.3,104 382.4,97.4 384.9,104 		"/>
		<polygon class="st10" points="382.4,97.3 390,93.2 392.4,104 384.9,104 		"/>
		<polygon class="st11" points="387.2,72.3 388.7,84.7 390,93.1 392.4,104 411.2,104 410.2,90.5 		"/>
		<polygon class="st12" points="387.2,72.3 398.4,56 410.2,90.4 		"/>
		<path class="st13" d="M398.4,56l0.9-1.9c0,0,9.9,4.7,15.4,1.8c5.6-2.9,5-4.7,5-4.7l-9.6,39.3L398.4,56z"/>
		<polygon class="st14" points="411.2,104 410.2,90.5 472.4,104 		"/>
		<polygon class="st15" points="410.2,90.4 419.7,51.1 431.5,76.1 		"/>
		<polygon class="st16" points="419.7,51.1 424,41 443.6,43.2 		"/>
		<polygon class="st17" points="431.5,76.1 443.6,43.2 419.7,51.1 		"/>
		<polygon class="st18" points="410.2,90.4 431.5,76.1 450.6,75.7 472.4,103.8 		"/>
		<polygon class="st19" points="431.5,76.1 453.9,60.4 455,61.7 450.6,75.7 		"/>
		<polygon class="st20" points="431.5,76.1 443.6,43.2 453.9,60.4 		"/>
		<polygon class="st21" points="450.6,75.7 455,61.7 456.5,60.4 467.6,73.2 		"/>
		<polygon class="st22" points="456.5,60.4 468.5,52.1 480.4,53.4 467.6,73.2 		"/>
		<polygon class="st23" points="476.8,82.8 467.6,73.2 480.4,53.4 		"/>
		<polygon class="st24" points="472.4,103.8 467.6,73.2 476.8,82.8 		"/>
		<polygon class="st25" points="467.6,73.2 450.6,75.7 472.4,103.8 		"/>
		<polygon class="st26" points="476.8,82.8 480.4,53.4 504.6,89.3 		"/>
		<polygon class="st27" points="476.8,82.9 504.6,89.4 495.6,104 491.8,104 		"/>
		<polygon class="st28" points="472.4,104 476.8,83 491.8,104 		"/>
		<polygon class="st29" points="480.6,50.8 479,38.6 483.9,35.1 		"/>
		<polygon class="st30" points="479,38.6 485.8,24.2 483.9,35.1 		"/>
		<polygon class="st28" points="480.4,53.4 480.6,50.8 483.9,35.1 509.3,50.6 		"/>
		<polygon class="st31" points="509.4,50.3 509.5,21 506,21 483.9,35.1 508.9,50.4 		"/>
		<polygon class="st32" points="509.4,50.3 509.5,21 527.8,32.7 		"/>
		<polygon class="st33" points="527.8,32.7 542.6,42.2 509.4,50.3 		"/>
		<polygon class="st34" points="504.6,89.3 509.4,50.3 480.4,53.4 		"/>
		<polygon class="st35" points="509.4,50.3 504.6,89.3 525.1,76.6 		"/>
		<polygon class="st36" points="509.4,50.3 542.6,42.2 549.8,54.9 539.4,53.9 		"/>
		<path class="st37" d="M549.6,54.6l-24.5,22l-15.7-26.3C509.4,50.3,549.5,55,549.6,54.6z"/>
		<polygon class="st38" points="545.8,79.7 549.6,54.6 525.1,76.6 		"/>
		<polygon class="st39" points="549.6,54.6 562,73.2 545.8,79.7 		"/>
		<polygon class="st39" points="549.6,54.6 562,73.2 545.8,79.7 		"/>
		<polygon class="st40" points="549.6,54.6 561.7,60.2 562,73.2 		"/>
		<polygon class="st41" points="504.6,89.5 511.3,104 495.6,104 		"/>
		<polygon class="st42" points="504.6,89.4 525.1,76.7 521.2,104 511.3,104 		"/>
		<polygon class="st43" points="525.1,76.7 545.8,79.7 544,80.7 545.3,81.8 529.8,104 521.2,104 		"/>
		<path class="st44" d="M545.3,81.7"/>
		<polygon class="st44" points="546.5,81.9 551.8,104 529.8,104 545.3,81.5 		"/>
		<polygon class="st45" points="551.8,104 553.7,104 552.2,84.4 545.3,81.5 		"/>
		<polygon class="st46" points="553.7,104 559,104 562.8,91 552.2,84.5 		"/>
		<polygon class="st47" points="562.8,91 572.2,104 559,104 		"/>
		<polygon class="st48" points="562.8,91 576.1,77.1 581.9,104 572.2,104 		"/>
		<polygon class="st49" points="581.9,104 576.1,77.2 598.2,104 		"/>
		<polygon class="st50" points="576.1,77.1 598.2,56.9 601.9,104 598.2,104 		"/>
		<polygon class="st51" points="626.6,54.2 598.2,56.9 601.9,104 605,104 		"/>
		<polygon class="st52" points="626.6,54.2 647.1,69.7 608.5,104 605,104 		"/>
		<polygon class="st53" points="647.1,69.8 652.8,104 608.5,104 		"/>
	</g>
</g>
<g>
	<polygon class="st0" points="780.9,35.1 782.8,24.2 803,21 	"/>
	<g>
		<polygon class="st1" points="629.4,104 621.7,83.3 617.1,92.1 617.6,104 		"/>
		<path class="st2" d="M641.7,72.1c-0.4-0.1-20,11.2-20,11.2l7.7,20.7h14.3L641.7,72.1z"/>
		<polygon class="st3" points="641.7,72 659.1,75.7 642.4,90.5 		"/>
		<polygon class="st4" points="659.1,75.7 662,90.4 642.4,90.5 		"/>
		<path class="st5" d="M643.6,103.8c0,0,19-13.6,18.4-13.5c-0.6,0.1-19.6,0.1-19.6,0.1L643.6,103.8z"/>
		<polygon class="st6" points="659.1,75.7 675.1,86.9 662,90.4 		"/>
		<path class="st7" d="M679.4,97.5c0,0-3.5-10.9-4.3-10.6c-0.7,0.3-13.1,3.5-13.1,3.5L679.4,97.5z"/>
		<polygon class="st8" points="662,90.5 679.4,97.6 662.3,104 643.6,104 		"/>
		<polygon class="st9" points="662.3,104 679.4,97.4 681.9,104 		"/>
		<polygon class="st10" points="679.4,97.3 687,93.2 689.4,104 681.9,104 		"/>
		<polygon class="st11" points="684.2,72.3 685.7,84.7 687,93.1 689.4,104 708.2,104 707.2,90.5 		"/>
		<polygon class="st12" points="684.2,72.3 695.4,56 707.2,90.4 		"/>
		<path class="st13" d="M695.4,56l0.9-1.9c0,0,9.9,4.7,15.4,1.8c5.6-2.9,5-4.7,5-4.7l-9.6,39.3L695.4,56z"/>
		<polygon class="st14" points="708.2,104 707.2,90.5 769.4,104 		"/>
		<polygon class="st15" points="707.2,90.4 716.7,51.1 728.5,76.1 		"/>
		<polygon class="st16" points="716.7,51.1 721,41 740.6,43.2 		"/>
		<polygon class="st17" points="728.5,76.1 740.6,43.2 716.7,51.1 		"/>
		<polygon class="st18" points="707.2,90.4 728.5,76.1 747.6,75.7 769.4,103.8 		"/>
		<polygon class="st19" points="728.5,76.1 750.9,60.4 752,61.7 747.6,75.7 		"/>
		<polygon class="st20" points="728.5,76.1 740.6,43.2 750.9,60.4 		"/>
		<polygon class="st21" points="747.6,75.7 752,61.7 753.5,60.4 764.6,73.2 		"/>
		<polygon class="st22" points="753.5,60.4 765.5,52.1 777.4,53.4 764.6,73.2 		"/>
		<polygon class="st23" points="773.8,82.8 764.6,73.2 777.4,53.4 		"/>
		<polygon class="st24" points="769.4,103.8 764.6,73.2 773.8,82.8 		"/>
		<polygon class="st25" points="764.6,73.2 747.6,75.7 769.4,103.8 		"/>
		<polygon class="st26" points="773.8,82.8 777.4,53.4 801.6,89.3 		"/>
		<polygon class="st27" points="773.8,82.9 801.6,89.4 792.6,104 788.8,104 		"/>
		<polygon class="st28" points="769.4,104 773.8,83 788.8,104 		"/>
		<polygon class="st29" points="777.6,50.8 776,38.6 780.9,35.1 		"/>
		<polygon class="st30" points="776,38.6 782.8,24.2 780.9,35.1 		"/>
		<polygon class="st28" points="777.4,53.4 777.6,50.8 780.9,35.1 806.3,50.6 		"/>
		<polygon class="st31" points="806.4,50.3 806.5,21 803,21 780.9,35.1 805.9,50.4 		"/>
		<polygon class="st32" points="806.4,50.3 806.5,21 824.8,32.7 		"/>
		<polygon class="st33" points="824.8,32.7 839.6,42.2 806.4,50.3 		"/>
		<polygon class="st34" points="801.6,89.3 806.4,50.3 777.4,53.4 		"/>
		<polygon class="st35" points="806.4,50.3 801.6,89.3 822.1,76.6 		"/>
		<polygon class="st36" points="806.4,50.3 839.6,42.2 846.8,54.9 836.4,53.9 		"/>
		<path class="st37" d="M846.6,54.6l-24.5,22l-15.7-26.3C806.4,50.3,846.5,55,846.6,54.6z"/>
		<polygon class="st38" points="842.8,79.7 846.6,54.6 822.1,76.6 		"/>
		<polygon class="st39" points="846.6,54.6 859,73.2 842.8,79.7 		"/>
		<polygon class="st39" points="846.6,54.6 859,73.2 842.8,79.7 		"/>
		<polygon class="st40" points="846.6,54.6 858.7,60.2 859,73.2 		"/>
		<polygon class="st41" points="801.6,89.5 808.3,104 792.6,104 		"/>
		<polygon class="st42" points="801.6,89.4 822.1,76.7 818.2,104 808.3,104 		"/>
		<polygon class="st43" points="822.1,76.7 842.8,79.7 841,80.7 842.3,81.8 826.8,104 818.2,104 		"/>
		<path class="st44" d="M842.3,81.7"/>
		<polygon class="st44" points="843.5,81.9 848.8,104 826.8,104 842.3,81.5 		"/>
		<polygon class="st45" points="848.8,104 850.7,104 849.2,84.4 842.3,81.5 		"/>
		<polygon class="st46" points="850.7,104 856,104 859.8,91 849.2,84.5 		"/>
		<polygon class="st47" points="859.8,91 869.2,104 856,104 		"/>
		<polygon class="st48" points="859.8,91 873.1,77.1 878.9,104 869.2,104 		"/>
		<polygon class="st49" points="878.9,104 873.1,77.2 895.2,104 		"/>
		<polygon class="st50" points="873.1,77.1 895.2,56.9 898.9,104 895.2,104 		"/>
		<polygon class="st51" points="923.6,54.2 895.2,56.9 898.9,104 902,104 		"/>
		<polygon class="st52" points="923.6,54.2 944.1,69.7 905.5,104 902,104 		"/>
		<polygon class="st53" points="944.1,69.8 949.8,104 905.5,104 		"/>
	</g>
</g>
</svg>
