<?xml version="1.0" encoding="UTF-8" standalone="no"?>
<svg width="27px" height="28px" viewBox="0 0 27 28" version="1.1" xmlns="http://www.w3.org/2000/svg" xmlns:xlink="http://www.w3.org/1999/xlink">
    <!-- Generator: Sketch 3.6.1 (26313) - http://www.bohemiancoding.com/sketch -->
    <title>Group 14 Copy 2</title>
    <desc>Created with Sketch.</desc>
    <defs></defs>
    <g id="Home" stroke="none" stroke-width="1" fill="none" fill-rule="evenodd">
        <g id="Desktop-HD-Copy-20" transform="translate(-520.000000, -595.000000)">
            <g id="Group-14-Copy-2" transform="translate(520.000000, 594.000000)">
                <path d="M15.9875406,28.3601909 L19.5625948,10.483871 L26.5821778,14.2539553 L15.9875406,28.3601909 Z" id="Path-1639" fill="#D4DCEA"></path>
                <path d="M18.9442351,11.0751485 L18.7462111,0.955473352 L26.5793483,14.3221598 L18.9442351,11.0751485 Z" id="Path-1640" fill="#EFF8FC"></path>
                <path d="M9.73770492,4.50988601 L18.7629613,1 C18.7629613,1 20.2963574,11.0751484 19.5296594,11.0751485 C18.7629614,11.0751486 9.73770492,4.50988601 9.73770492,4.50988601 Z" id="Path-1641" fill="#FCFDFF"></path>
                <path d="M0.885245902,10.9179673 L10.1759188,4.61290323 C10.1759188,4.61290323 8.6129713,7.71629908 8.61297122,7.7162991 C8.61297113,7.71629912 0.885245902,10.9179673 0.885245902,10.9179673 Z" id="Path-1642" fill="#DCE6F3"></path>
                <path d="M19.356415,11.211907 C18.9839766,10.646515 9.79230095,4.49692128 9.79230095,4.49692128 L8.40983607,7.57056569 C8.40983607,7.57056569 19.7288535,11.777299 19.356415,11.211907 Z" id="Path-1643" fill="#D3DBE5"></path>
                <path d="M10.9463425,15.6231385 L8.50121879,7.53518923 L19.3521112,11.267887 L10.9463425,15.6231385 Z" id="Path-1644" fill="#DEE7F0"></path>
                <path d="M15.9617219,28.2513074 C15.9617219,27.308787 11.2150775,15.4562814 11.2150775,15.4562814 L19.4624857,11.1935532 C19.4624857,11.1935532 15.9617219,29.1938278 15.9617219,28.2513074 Z" id="Path-1645" fill="#C1D3E4"></path>
                <path d="M5.36999006,20.8185685 L11.2600083,15.3592685 L16.1095814,28.2795053 L5.36999006,20.8185685 Z" id="Path-1646" fill="#D0DDE6"></path>
                <path d="M-3.11306536e-12,18.8781294 L5.54474279,20.9747921 L1.2975311,11.3870968 L-3.11306536e-12,18.8781294 Z" id="Path-1647" fill="#9BB4CF"></path>
                <path d="M0.0852892819,18.983666 L16.1046946,28.3071552 L5.43577747,20.7942559 L0.0852892819,18.983666 Z" id="Path-1648" fill="#8BA2C6"></path>
                <path d="M5.43577761,20.8948438 L1.08080381,10.947088 L10.9404854,15.7779092 L5.43577761,20.8948438 Z" id="Path-1649" fill="#B8CADB"></path>
                <path d="M0.888208175,10.905494 L8.53172895,7.53066037 C8.53172895,7.53066037 11.0316129,15.9122671 11.0316132,15.912267 C11.0316135,15.9122669 0.888208175,10.905494 0.888208175,10.905494 Z" id="Path-1650" fill="#ABBDD2"></path>
            </g>
        </g>
    </g>
</svg>