<?xml version="1.0" encoding="UTF-8" standalone="no"?>
<svg width="112px" height="110px" viewBox="0 0 112 110" version="1.1" xmlns="http://www.w3.org/2000/svg" xmlns:xlink="http://www.w3.org/1999/xlink">
    <!-- Generator: Sketch 3.6.1 (26313) - http://www.bohemiancoding.com/sketch -->
    <title>Group 10</title>
    <desc>Created with Sketch.</desc>
    <defs></defs>
    <g id="Home" stroke="none" stroke-width="1" fill="none" fill-rule="evenodd">
        <g id="Desktop-HD-Copy-20" transform="translate(-289.000000, -430.000000)">
            <g id="Group-10" transform="translate(290.000000, 431.000000)">
                <g id="Group-3">
                    <g id="Group-12">
                        <g id="Group-7" transform="translate(55.407865, 54.728750) scale(-1, 1) translate(-55.407865, -54.728750) translate(5.407865, 7.728750)">
                            <path d="M4.68537448,59.8799936 L7.10542736e-14,-1.16529009e-12 L81.523247,0.110297244 L98.6424482,52.3531575 L54.2126946,92.8664764 L4.68537448,59.8799936 Z" id="Path-373" fill="#EDF0F5"></path>
                            <path d="M53.6882338,93.0013693 L34.4528499,63.478971 L3.75628492,59.2428058 L53.6882338,93.0013693 Z" id="Path-374" fill="#BFCFE0"></path>
                            <path d="M34.1321155,63.5654608 L99.4599553,51.6315058 L54.1242706,93.6032808 L34.1321155,63.5654608 Z" id="Path-375" fill="#C9D5E6"></path>
                            <path d="M32.0518019,63.9994015 L92.972134,36.3487499 C92.972134,36.3487499 99.3754408,52.4860678 99.375438,52.4860713 C99.3754352,52.4860748 32.0518019,63.9994015 32.0518019,63.9994015 Z" id="Path-376" fill="#D0DAE7"></path>
                            <path d="M32.6116018,62.6543372 L0,-1.1155521e-12 L81.7628999,-1.1155521e-12 L93.2301851,36.5247321 L32.6116018,62.6543372 Z" id="Path-377" fill="#FCFDFF"></path>
                            <path d="M54.2078649,93.17125 L33.0711461,63.34 L4.65005237,59.0204688 L54.2078649,93.17125 Z" id="Path-2054" stroke="#FFFFFF"></path>
                        </g>
                        <path d="M44.8915416,107.554018 L0,58.8624107 L22.122905,0 L109.709541,2.17446429 L106.084803,69.6672321 L44.8915416,107.554018 Z" id="Path-469" stroke="#FFFFFF"></path>
                    </g>
                    <g id="Page-1" transform="translate(46.000000, 15.000000)" fill="#3965B6">
                        <path d="M21.1484694,0.303278689 L25.2927551,4.67595082 C25.6178571,3.15045902 26.0770408,1.70018033 26.6323469,0.303278689 L21.1484694,0.303278689 L21.1484694,0.303278689 Z" id="Stroke-1" opacity="0.764342351"></path>
                        <path d="M25.2926939,4.67613279 L29.5373878,9.15495246 L29.5373878,0.303460656 L26.6322857,0.303460656 C26.0769796,1.7003623 25.6177959,3.15064098 25.2926939,4.67613279 L25.2926939,4.67613279 Z" id="Stroke-3" opacity="0.632346082"></path>
                        <path d="M0,0.439511475 L0,11.0251508 C2.70306122,7.45192131 5.51020408,3.92236393 8.39020408,0.439511475 L0,0.439511475 Z" id="Fill-5" opacity="0.432427705"></path>
                        <path d="M29.3662041,25.7197918 C26.648449,29.2657262 24.1351837,32.9214475 22.0737551,36.8701361 L29.3662041,36.8701361 L29.3662041,25.7197918 Z" id="Fill-7" opacity="0.605235541"></path>
                        <path d="M0,36.3245377 C2.91795918,34.8087508 5.5279541,33.505798 5.5279541,33.505798 L5.5279541,25.3268015 L5.00636673,25.3268015 L0.0899358886,22.1805565 C0.0899358886,22.1805565 0.0295646212,22.1201917 0,22.0898492 L0,36.3245377 Z" id="Fill-9" opacity="0.501515858"></path>
                        <path d="M12.8373673,36.8702574 L7.80670157,32.3754883 C7.80670157,32.3754883 2.91777551,34.8085689 -0.00018367347,36.3249623 L-0.00018367347,36.8702574 L12.8373673,36.8702574 Z" id="Fill-11" opacity="0.558127332"></path>
                        <path d="M0,22.1788278 L5.0038147,25.3449903 L5.48939705,25.3449903 L5.48939705,16.6570554 L3.16113281,12.4418945 L0,12.0728574 L0,19.0112672 L0,22.1788278 Z" id="Fill-14" opacity="0.699510261"></path>
                        <path d="M0,12.0727361 L3.1875,12.5129396 L5.46362305,16.6832334 L5.59736872,7.52256369 L2.82612245,7.35917869 C2.82612245,7.35917869 0.92877551,9.79753934 0,11.0252115 L0,12.0727361 Z" id="Fill-16" opacity="0.325559701"></path>
                        <path d="M8.39038776,0.439511475 C6.49977551,2.72562623 2.82630612,7.35911803 2.82630612,7.35911803 L9.90931727,7.79878777 C9.90931727,7.79878777 10.8338571,4.05641311 12.0093673,0.439511475 L8.39038776,0.439511475 Z" id="Fill-18" opacity="0.573810634"></path>
                        <path d="M16.5906122,0.439511475 L16.3579592,0.439511475 L12.0091837,0.439511475 C11.1355102,3.12838033 10.1831515,6.58296936 10.1831515,6.58296936 L14.8732746,5.14188069 C14.8732746,5.14188069 17.067921,3.51738076 18.5877551,2.45692131 L16.5906122,0.439511475 Z" id="Fill-22" opacity="0.36328125"></path>
                        <path d="M18.5876939,2.45722459 C17.1556531,3.45622459 14.6841146,5.27031253 14.6841146,5.27031253 L21.9141547,12.7753646 L22.1193954,6.00696324 L18.5876939,2.45722459 Z" id="Fill-30" opacity="0.714027519"></path>
                        <path d="M22.1238367,6.0299082 C21.8671601,8.21491405 21.9068468,12.7425819 21.9068468,12.7425819 L25.3833706,15.7455359 L24.4934081,16.6055298 L27.8092043,16.6055298 L29.3914186,13.3495484 L22.1238367,6.0299082 Z" id="Fill-32" opacity="0.43126166"></path>
                        <path d="M7.76971436,32.4039917 L12.8370612,36.8700754 L22.1331787,36.8700752 L24.0213623,33.3692627 L11.1056327,34.761682" id="Fill-36" opacity="0.91511194"></path>
                        <path d="M24.4465332,26.0739747 L29.3661429,25.7192459 L29.3661429,19.8277541 C26.1579549,21.7064542 24.5282631,22.6004662 24.4465332,22.6598512" id="Fill-38" opacity="0.778043377"></path>
                        <path d="M29.3662041,13.3469918 L27.8044084,16.5979352 L24.4358257,16.5979352 L24.4358259,22.6883375 C24.4358259,22.6883375 26.0692653,21.758123 29.3662041,19.8280574 L29.3662041,13.3469918 Z" id="Fill-40" opacity="0.539237407"></path>
                    </g>
                    <path d="M70.2312318,48.301244 L70.5335453,40.9410637 L75.4646438,40.7024065 L70.2312318,48.301244 Z" id="Path-2052" fill="#3965B6" opacity="0.429279384"></path>
                    <path d="M53.9027719,47.4405045 C53.9027719,47.4405045 53.8351238,47.3949676 53.9027719,47.3947794 C59.3114581,47.3797259 70.331775,47.3947794 70.331775,47.3947794 L70.086179,48.4648424 L57.1885411,49.7910292 L53.9027719,47.4405045 Z" id="Path-2053" fill="#3965B6" opacity="0.303579757"></path>
                </g>
                <path d="M72.5890625,71.1601562 L106.104687,6.746875 L101.2625,66.0898437 L72.5890625,71.1601562 Z" id="Path-2055" stroke="#FFFFFF"></path>
                <path d="M71.915625,71.2960938 L11.1578125,44.353125 L6.146875,60.2460938 L71.915625,71.2960938 Z" id="Path-2056" stroke="#FFFFFF"></path>
                <path d="M49.8945312,102.264063 L5.85234375,60.428125 L72.1679688,70.8414063 L49.8945312,102.264063 Z" id="Path-2057" stroke="#FFFFFF"></path>
                <path d="M73.011995,71.0385744 L11.1663464,44.2172176 L24.7912872,7.79439252 L105.866767,6.85486508 L73.011995,71.0385744 Z" id="Path-2058" stroke="#FCFDFF"></path>
            </g>
        </g>
    </g>
</svg>