<?xml version="1.0" encoding="UTF-8" standalone="no"?>
<svg width="54px" height="52px" viewBox="0 0 54 52" version="1.1" xmlns="http://www.w3.org/2000/svg" xmlns:xlink="http://www.w3.org/1999/xlink">
    <!-- Generator: Sketch 3.6.1 (26313) - http://www.bohemiancoding.com/sketch -->
    <title>Group 13</title>
    <desc>Created with Sketch.</desc>
    <defs></defs>
    <g id="Home" stroke="none" stroke-width="1" fill="none" fill-rule="evenodd">
        <g id="Desktop-HD-Copy-20" transform="translate(-46.000000, -554.000000)">
            <g id="Group-13" transform="translate(72.753079, 577.586283) rotate(-67.000000) translate(-72.753079, -577.586283) translate(44.753079, 551.086283)">
                <path d="M16.0908803,50.2445712 C16.0908803,49.2326715 48.9502095,39.9121507 48.9502095,39.9121507 L34.0610387,52.8008531 C34.0610387,52.8008531 16.0908803,51.2564709 16.0908803,50.2445712 Z" id="Path-1631" fill="#91ACCA"></path>
                <path d="M16.2391733,50.7249034 L1.01582181,35.052327 L48.983982,39.9187273 L16.2391733,50.7249034 Z" id="Path-1632" fill="#A9BED7"></path>
                <path d="M1,35.2527191 L13.6597424,3.78086112 L46.6112747,9.89892484 L1,35.2527191 Z" id="Path-1633" fill="#FCFDFF"></path>
                <path d="M48.9433552,39.8838372 L46.1266033,11.3900181 C46.0758628,10.8767348 46.5443231,9.96122753 46.5443231,9.96122753 L55.0090301,30.6177427 L48.9433552,39.8838372 Z" id="Path-1634" fill="#F3F6FD"></path>
                <path d="M1,34.9892226 C1,33.7595723 46.5397339,9.97128272 46.5397339,9.97128272 L49.0296974,39.9201372 C49.0296974,39.9201372 1,36.2188729 1,34.9892226 Z" id="Path-1635" fill="#DCE6F3"></path>
                <path d="M1,35.2697853 C1.16967094,34.7743838 1,15.2773067 1,15.2773067 L13.7080613,3.74750558 C13.7080613,3.74750558 0.830329065,35.7651869 1,35.2697853 Z" id="Path-1636" fill="#D0DAE3"></path>
                <path d="M13.6051351,3.77546263 L25.8699255,-1.98951966e-12 L45.0654726,9.20627277 L46.5461637,9.91641903 L13.6051351,3.77546263 Z" id="Path-1637" fill="#F3F6FD"></path>
                <path d="M46.5963995,9.966506 L36.5433338,0.0539801829 L25.8304566,0.0539801829 L46.5963995,9.966506 Z" id="Path-1638" fill="#DEE5EF"></path>
            </g>
        </g>
    </g>
</svg>