<?xml version="1.0" encoding="UTF-8" standalone="no"?>
<svg width="200px" height="167px" viewBox="0 0 200 167" version="1.1" xmlns="http://www.w3.org/2000/svg" xmlns:xlink="http://www.w3.org/1999/xlink">
    <!-- Generator: Sketch 3.6.1 (26313) - http://www.bohemiancoding.com/sketch -->
    <title>Group 11</title>
    <desc>Created with Sketch.</desc>
    <defs></defs>
    <g id="Home" stroke="none" stroke-width="1" fill="none" fill-rule="evenodd">
        <g id="Desktop-HD-Copy-20" transform="translate(-1156.000000, -303.000000)">
            <g id="Group-11" transform="translate(1147.000000, 266.000000)">
                <g id="Group-6-Copy" transform="translate(110.607830, 111.849785) scale(-1, 1) rotate(-36.000000) translate(-110.607830, -111.849785) translate(35.107830, 28.849785)">
                    <path d="M118.284785,162.96971 C118.284785,160.130521 149.59659,66.9332153 149.59659,66.9332153 C149.59659,66.9332153 79.6593885,2.27333607 78.0249259,2.27333403 C76.3904633,2.27333199 8.7756693,27.6436679 8.7756693,27.6436679 L-1.27897692e-12,98.8216824 L22.2807508,147.32939 C22.2807508,147.32939 118.284785,165.8089 118.284785,162.96971 Z" id="Path-392" stroke="#FFFFFF"></path>
                    <path d="M10.5595538,29.4958229 C10.5595538,32.5349131 23.1258445,73.5750657 23.1258445,73.5750657 L59.0883559,116.060154 L114.302147,137.341246 L150.396126,67.5665207 C150.396126,67.5665207 105.07711,45.3478367 102.269167,45.3478367 C99.4612236,45.3478367 55.6131539,42.2341371 55.6131539,42.2341371 C55.6131539,42.2341371 10.5595538,26.4567326 10.5595538,29.4958229 Z" id="Path-401" fill="#FCFDFF"></path>
                    <path d="M99.4516742,44.3127145 L78.7002489,2.1564664 L148.92518,67.4371977 L99.4516742,44.3127145 Z" id="Path-405" fill="#DDE6ED"></path>
                    <path d="M53.9161582,42.0381512 L78.4257121,0.968189032 C78.4257121,0.968189032 102.935266,45.2893653 102.935266,45.2893653 C102.935266,45.2893653 53.9161582,42.0381512 53.9161582,42.0381512 Z" id="Path-404" fill="#D0DAE7"></path>
                    <path d="M9.15796051,27.7198368 L78.6075311,1.92018279 L56.3818768,43.9623047 L9.15796051,27.7198368 Z" id="Path-404" fill="#D0DAE7"></path>
                    <path d="M113.787977,137.644757 L60.8817685,117.255397 L116.798328,164.691411 L113.787977,137.644757 Z" id="Path-396" stroke="#FFFFFF"></path>
                    <path d="M117.415959,163.889274 L113.117756,136.92588 L150.095983,67.0119241 L117.415959,163.889274 Z" id="Path-400" fill="#BFCFE0"></path>
                    <path d="M22.4759495,147.697033 L60.4253537,117.564777 C60.4253537,117.564777 102.821082,153.849823 113.917667,161.37667 C125.014252,168.903516 22.4759495,147.697033 22.4759495,147.697033 Z" id="Path-397" fill="#A5BAD3"></path>
                    <path d="M116.807467,165.011392 L115.202574,138.159463 L60.2591591,117.604569 L116.807467,165.011392 Z" id="Path-399" fill="#9DB2CF"></path>
                    <path d="M22.7934555,148.378466 L2.07123031,99.3053662 L60.6262754,116.82117 L22.7934555,148.378466 Z" id="Path-398" fill="#C9D5E6"></path>
                    <path d="M116.122172,163.737983 C114.316918,163.737983 57.5400287,114.998342 57.54003,114.998342 C57.5400312,114.998342 22.4421417,72.0314488 22.4421413,72.0314477 C22.4421408,72.0314466 9.36642592,28.0856338 9.36642592,28.0856338 C9.36642592,28.0856338 52.8952161,41.7713143 55.217622,41.7713142 C57.540028,41.7713142 97.1119426,43.9594877 99.4343538,43.9594875 C101.756765,43.9594874 148.554479,66.7705544 148.554479,66.7705544 L113.198013,136.876876 C113.198013,136.876876 117.927425,163.737983 116.122172,163.737983 Z" id="Path-393" stroke="#FFFFFF"></path>
                    <path d="M24.259985,145.127056 L60.5613759,115.986602 L-4.51549909e-12,98.4828151 L24.259985,145.127056 Z" id="Path-394" stroke="#FFFFFF"></path>
                    <path d="M56.1985555,40.2784941 L78.7362875,4.61990674 L100.329095,44.514081 L56.1985555,40.2784941 Z" id="Path-395" stroke="#FFFFFF"></path>
                    <path d="M9.89229517,29.7843126 L0.533310798,98.9795717 L59.0883559,117.435454 L22.0567424,72.5603776 L9.89229517,29.7843126 Z" id="Path-402" fill="#ABBDD2"></path>
                </g>
                <path d="M116.233947,203.216115 L176.51158,180.110012 L207.772986,111.038225 L165.490171,37.8340807 L47.4096109,45.7394598 L10.0762059,152.382689 L116.233947,203.216115 Z" id="Path-416-Copy" stroke="#F3F6FD"></path>
                <g id="Group-7-Copy-2" transform="translate(96.579870, 91.591928)"></g>
                <g id="Group-6-Copy-2" transform="translate(70.728200, 80.641256)" fill="#4073D1">
                    <path d="M18.6407102,33.2864354 L26.0783855,17.6781551 L26.1226135,32.1289453 L18.6407102,33.2864354 Z" id="Path-440" opacity="0.765450093"></path>
                    <path d="M18.5964822,32.9764593 L18.9273731,15.0294176 L25.6590385,14.0506968 L26.2548879,17.7261276 L18.5964822,32.9764593 Z" id="Path-441" opacity="0.504664179"></path>
                    <path d="M18.8446504,15.2532892 L25.5984298,0.146054942 L25.9735487,14.0002642 L18.8446504,15.2532892 Z" id="Path-442" opacity="0.454407649"></path>
                    <path d="M18.5575779,15.5394841 L18.5137594,1.01694015 L26.3265537,0.324824222 L18.5575779,15.5394841 Z" id="Path-443" opacity="0.397854478"></path>
                    <path d="M33.6982965,16.1840376 L36.3908808,0.635210336 L45.1971669,2.6398044 L33.6982965,16.1840376 Z" id="Path-444" opacity="0.912021922"></path>
                    <path d="M33.6737705,16.0111425 L25.6973333,15.2368753 L36.5491309,0.401767539 L33.6737705,16.0111425 Z" id="Path-445" opacity="0.699510261"></path>
                    <path d="M32.6216248,27.5717323 C32.6216248,27.5717323 36.8081302,19.5662634 36.5877662,19.5662633 C36.3674021,19.5662633 34.1308518,15.8015603 34.1308518,15.8015603 L25.7799186,15.1881638 L26.7605175,18.6786088 L32.6216248,27.5717323 Z" id="Path-446"></path>
                    <path d="M36.4665456,33.6594417 L32.1259083,27.107131 L36.7418982,19.3873816 L44.5310875,30.8360168 L36.4665456,33.6594417 Z" id="Path-447" opacity="0.798915578"></path>
                    <path d="M8.77848871,8.41716298 L10.6886712,20.0104488 C10.6886712,20.0104488 14.3255187,14.1182889 16.7328486,14.4789689 C16.7328486,13.3473475 16.4058673,10.7443267 16.4058673,10.7443267 L14.0378626,11.8052218 L8.77848871,8.41716298 Z" id="Path-448" opacity="0.792618937"></path>
                    <path d="M8.38596552,8.21908063 L4.77509198,11.4868317 L8.18982529,17.301217 C8.18982529,17.301217 6.80300711,20.3356441 6.80300711,21.4179271 C6.80300711,22.5002102 9.24941944,24.530372 9.24941944,24.530372 L11.224901,20.1307565 L8.38596552,8.21908063 Z" id="Path-449" opacity="0.712045243"></path>
                    <path d="M0.43815978,27.3380373 L9.47833062,24.7491132 L7.11032582,22.2523035 L0.765141067,22.9880032 L0.43815978,27.3380373 Z" id="Path-450" opacity="0.893190299"></path>
                    <path d="M10.8945213,32.1209361 L9.28534612,42.4550015 L7.76792962,42.6671805 L4.51025413,38.904345 L8.47432571,32.6089721 L10.8945213,32.1209361 Z" id="Path-452" opacity="0.792618937"></path>
                    <path d="M8.99768997,42.1154665 L10.6983811,31.5903671 C10.6983811,31.5903671 13.0530347,34.5822612 14.9894339,35.5089949 C14.9894339,36.8529168 15.4865814,39.583172 15.4865814,39.583172 L14.2830378,38.9821197 L8.99768997,42.1154665 Z" id="Path-453" opacity="0.751749067"></path>
                    <path d="M19.5946025,47.6258014 L20.8374712,37.92803 C20.8374712,37.92803 15.8659962,37.1711853 15.2511161,35.8696749 C14.6362359,34.5681645 15.3035496,39.4772041 15.3035496,39.4772041 L17.2790312,40.5594871 L19.5946025,47.6258014 Z" id="Path-454" opacity="0.915170243"></path>
                    <path d="M24.3175037,47.3781377 L19.5814941,47.5409784 L20.772172,38.0908707 L25.9528956,40.3614048 L24.3175037,47.3781377 Z" id="Path-455" opacity="0.668085354"></path>
                    <path d="M30.2179744,38.9750714 L28.504175,36.4213889 C28.504175,36.4213889 22.8131955,38.7203594 20.9030131,37.8998367 C22.3420221,40.0148214 26.2929853,40.5665354 26.2929853,40.5665354 L30.2179744,38.9750714 Z" id="Path-456" opacity="0.460704291"></path>
                    <path d="M35.7387877,43.4595099 L39.0226799,39.4560591 L36.9032489,35.7989486 L35.9873614,35.6008662 L33.1484259,31.5125924 C33.1484259,31.5125924 29.8121001,36.1810166 28.530149,36.1810166 C29.3545205,37.9209816 29.9956175,39.2365887 29.9956175,39.2365887 L35.7387877,43.4595099 Z" id="Path-457" opacity="0.742304104"></path>
                    <path d="M6.72459957,29.4148639 L0,27.2432495 L9.31496135,24.8878924 C9.31496135,24.8878924 8.49083256,29.1035222 11.0549776,31.812754 C10.8705815,31.9244341 10.6963213,32.0259495 10.5321196,32.1182004 C9.14686482,32.8964562 8.47748144,33.0153447 8.47748144,33.0153447 L6.72459957,29.4148639 Z" id="Path-451" opacity="0.604069496"></path>
                </g>
            </g>
        </g>
    </g>
</svg>