<?xml version="1.0" encoding="UTF-8" standalone="no"?>
<svg width="46px" height="46px" viewBox="0 0 46 46" version="1.1" xmlns="http://www.w3.org/2000/svg" xmlns:xlink="http://www.w3.org/1999/xlink">
    <!-- Generator: Sketch 3.6.1 (26313) - http://www.bohemiancoding.com/sketch -->
    <title>Group 14</title>
    <desc>Created with Sketch.</desc>
    <defs></defs>
    <g id="Home" stroke="none" stroke-width="1" fill="none" fill-rule="evenodd">
        <g id="Desktop-HD-Copy-20" transform="translate(-1124.000000, -142.000000)">
            <g id="Group-14" transform="translate(1124.000000, 142.000000)">
                <path d="M27.2526042,45.5833334 L33.3288651,15.9193548 L45.2881548,22.2477108 L27.2526042,45.5833334 Z" id="Path-1639" fill="#D4DCEA"></path>
                <path d="M32.2753634,16.9118564 L31.6721311,8.70414851e-14 L45.2734371,22.2526035 L32.2753634,16.9118564 Z" id="Path-1640" fill="#EFF8FC"></path>
                <path d="M16.7963542,6.27604151 L31.9665267,0 L32.7401044,17.1367188 L16.7963542,6.27604151 Z" id="Path-1641" fill="#FCFDFF"></path>
                <path d="M1.50819672,16.6480166 L17.3367506,6.06451613 C17.3367506,6.06451613 14.6739511,11.2737877 14.673951,11.2737878 C14.6739508,11.2737878 1.50819672,16.6480166 1.50819672,16.6480166 Z" id="Path-1642" fill="#DCE6F3"></path>
                <path d="M32.9226565,17.2049475 L16.9403215,6.06451613 L14.4526042,11.6347318 L32.9226565,17.2049475 Z" id="Path-1643" fill="#D3DBE5"></path>
                <path d="M18.9437498,24.5414065 L14.3278689,11.3709677 L32.9702636,17.2353817 L18.9437498,24.5414065 Z" id="Path-1644" fill="#DEE7F0"></path>
                <path d="M27.1940447,45.7432661 C27.1940447,44.1611783 19.1401042,24.3697915 19.1401042,24.3697915 L33.0630206,17.1244792 C33.0630206,17.1244792 27.1940447,47.3253538 27.1940447,45.7432661 Z" id="Path-1645" fill="#C1D3E4"></path>
                <path d="M9.37187499,32.6687495 L19.477083,24.2333333 L27.378907,45.6440103 L9.37187499,32.6687495 Z" id="Path-1646" fill="#D0DDE6"></path>
                <path d="M-2.74358314e-12,30.0097171 L9.44659882,33.5291153 L2.01859498,16.3756292 L-2.74358314e-12,30.0097171 Z" id="Path-1647" fill="#9BB4CF"></path>
                <path d="M0.0302090743,30.070748 L27.4364652,45.5843502 L9.39835585,32.7341423 L0.0302090743,30.070748 Z" id="Path-1648" fill="#8BA2C6"></path>
                <path d="M9.09550893,32.9341334 L2.01380208,16.4804688 L19.0385421,24.8057763 L9.09550893,32.9341334 Z" id="Path-1649" fill="#B8CADB"></path>
                <path d="M1.63489582,16.5109376 L14.4208334,11.3648437 C14.4208334,11.3648437 19.136718,24.8552089 19.1367185,24.8552088 C19.1367191,24.8552086 1.63489582,16.5109376 1.63489582,16.5109376 Z" id="Path-1650" fill="#ABBDD2"></path>
            </g>
        </g>
    </g>
</svg>