<?xml version="1.0" encoding="UTF-8" standalone="no"?>
<svg width="42px" height="45px" viewBox="0 0 42 45" version="1.1" xmlns="http://www.w3.org/2000/svg" xmlns:xlink="http://www.w3.org/1999/xlink">
    <!-- Generator: Sketch 3.6.1 (26313) - http://www.bohemiancoding.com/sketch -->
    <title>Group 15</title>
    <desc>Created with Sketch.</desc>
    <defs></defs>
    <g id="Home" stroke="none" stroke-width="1" fill="none" fill-rule="evenodd">
        <g id="Desktop-HD-Copy-20" transform="translate(-1054.000000, -577.000000)">
            <g id="Group-15" transform="translate(1054.000000, 578.000000)">
                <path d="M20.0473221,42.7764351 L38.1986175,36.5447883 L41,16.7906239 L34.1093267,4.62877784 L8.89896312,0 L1,26.0471401 L20.0473221,42.7764351 Z" id="Path-1265" stroke="#FFFFFF"></path>
                <path d="M21.8369758,26.2629268 L34.2768025,4.67901984 L41.2421822,16.7695774 L21.8369758,26.2629268 Z" id="Path-1266" fill="#D9DFF3"></path>
                <path d="M20.7599345,42.4277776 C19.7326233,42.6323621 20.9949267,40.8036145 21.1124227,39.9915329 C21.8242484,35.0717035 23.2478999,25.2320445 23.2478999,25.2320445 L38.3387867,36.56098 C38.3387867,36.56098 21.7872458,42.2231932 20.7599345,42.4277776 Z" id="Path-1267" fill="#ABBDD2"></path>
                <path d="M22.5016641,25.5013048 L1.35472816,25.8598057 L20.7599345,42.8755191 L22.5016641,25.5013048 Z" id="Path-1268" fill="#95ACCE"></path>
                <path d="M23.1044922,25.8603516 L40.5253906,16.8789062 L38.3154297,37.2001953 L23.1044922,25.8603516 Z" id="Path-1269" fill="#CCD0DC"></path>
                <path d="M23.2363281,25.5976562 L8.92089844,0.814453125 L35.1835938,5.24804688 L23.2363281,25.5976562 Z" id="Path-1270" fill="#E9EDF6"></path>
                <path d="M23.6572266,25.6542969 L9.2890625,1.46777344 L0.5,25.9101562 L23.6572266,25.6542969 Z" id="Path-1271" fill="#DAE4EF"></path>
            </g>
        </g>
    </g>
</svg>