<?xml version="1.0" encoding="UTF-8" standalone="no"?>
<svg width="225px" height="62px" viewBox="0 0 225 62" version="1.1" xmlns="http://www.w3.org/2000/svg" xmlns:xlink="http://www.w3.org/1999/xlink" xmlns:sketch="http://www.bohemiancoding.com/sketch/ns">
    <!-- Generator: Sketch 3.3.1 (12005) - http://www.bohemiancoding.com/sketch -->
    <title>Slice 1</title>
    <desc>Created with Sketch.</desc>
    <defs>
        <linearGradient x1="1.9781836%" y1="30.196424%" x2="86.7630837%" y2="83.2819276%" id="linearGradient-1">
            <stop stop-color="#2FB4E8" offset="0%"></stop>
            <stop stop-color="#07FAA0" offset="100%"></stop>
        </linearGradient>
        <linearGradient x1="0.12312363%" y1="50.0008448%" x2="99.9662675%" y2="50.0008448%" id="linearGradient-2">
            <stop stop-color="#00D8F0" offset="0%"></stop>
            <stop stop-color="#EAFF87" offset="100%"></stop>
        </linearGradient>
        <linearGradient x1="-0.17087916%" y1="50%" x2="99.8316521%" y2="50%" id="linearGradient-3">
            <stop stop-color="#2FB4E8" offset="0%"></stop>
            <stop stop-color="#07FAA0" offset="100%"></stop>
        </linearGradient>
        <linearGradient x1="-0.0978792822%" y1="50.0012069%" x2="99.7498641%" y2="50.0012069%" id="linearGradient-4">
            <stop stop-color="#EAFF87" offset="0%"></stop>
            <stop stop-color="#07FAA0" offset="100%"></stop>
        </linearGradient>
        <linearGradient x1="-0.00337325013%" y1="50.001577%" x2="99.9983134%" y2="50.001577%" id="linearGradient-5">
            <stop stop-color="#16A8CC" offset="0%"></stop>
            <stop stop-color="#2EDBE9" offset="25.1%"></stop>
            <stop stop-color="#07FAA0" offset="100%"></stop>
        </linearGradient>
    </defs>
    <g id="Page-1" stroke="none" stroke-width="1" fill="none" fill-rule="evenodd" sketch:type="MSPage">
        <g id="logo-eyeos-copy" sketch:type="MSLayerGroup" transform="translate(1.000000, 1.000000)">
            <g transform="translate(0.147487, 0.246634)" id="Shape" sketch:type="MSShapeGroup">
                <path d="M100.232268,30.955888 L100.232268,35.4165637 C100.232268,36.2275957 99.7595308,36.7006976 98.7465228,36.7006976 L83.8920731,36.7006976 C84.3648101,41.0262014 86.3908262,42.2427493 92.5341572,42.2427493 C94.8303087,42.2427493 97.261528,41.9048193 98.8808401,41.7696473 L99.0174086,41.6344753 C99.2875441,41.6344753 99.5576796,41.7020613 99.5576796,42.0384894 L99.5576796,47.1059372 C99.5576796,47.378534 99.4226118,47.5114532 99.0174086,47.5790391 C95.7757829,48.0521411 92.2640217,48.392324 88.6186935,48.392324 C79.9083252,48.392324 75.6536914,44.0668202 75.6536914,34.8075388 L75.6536914,32.0395168 C75.6536914,23.4575972 80.7862655,19.4707744 88.7530109,19.4707744 C96.4496209,19.5383604 100.231518,23.4583482 100.230767,30.956639 L100.232268,30.955888 Z M92.7375092,30.212442 C92.7375092,26.9705671 91.6569673,25.1457452 88.6179432,25.1457452 C85.578919,25.1457452 83.8245392,26.4974651 83.8245392,30.6877969 L83.8245392,31.8367588 L92.7375092,31.8367588 L92.7375092,30.212442 L92.7375092,30.212442 Z M128.185287,19.8762904 C128.928159,19.8762904 129.400896,20.4169784 129.400896,21.0928383 L129.400896,42.5115914 C129.400896,51.3638549 124.741059,54.6755687 115.558704,54.6755687 C112.384612,54.6755687 108.400114,54.5388948 106.03868,53.9321228 C105.295807,53.7984527 105.025672,53.4590208 105.025672,52.7854137 L105.025672,48.7302539 C105.025672,48.1910679 105.16074,47.919222 105.768544,47.919222 L106.036429,47.919222 C107.724776,48.1910679 110.561198,48.3953278 113.397621,48.3953278 C118.80033,48.3953278 120.958412,47.5152079 121.295331,44.1359081 C118.796578,44.5414241 116.299326,44.6090101 114.138992,44.6090101 C108.466147,44.6090101 104.281299,42.5829321 104.281299,35.7582485 L104.281299,21.0920874 C104.281299,20.4162274 104.686502,19.9446274 105.429374,19.9446274 L111.102219,19.9446274 C111.845092,19.9446274 112.385363,20.4853153 112.385363,21.1611753 L112.385363,34.1339317 C112.385363,37.3780595 114.411379,38.3242635 117.312334,38.3242635 C118.46041,38.3242635 119.944654,38.1890915 121.364366,37.9187475 L121.364366,21.0943403 C121.364366,20.4184803 121.837103,19.9438764 122.577724,19.9438764 L128.183036,19.9438764 L128.183036,19.8762904 L128.186037,19.8762904 L128.185287,19.8762904 Z M157.894937,30.955888 L157.894937,35.4165637 C157.894937,36.2275957 157.4237,36.7006976 156.410692,36.7006976 L141.555492,36.7006976 C142.028229,41.0262014 144.054245,42.2427493 150.199827,42.2427493 C152.495979,42.2427493 154.927198,41.9048193 156.54576,41.7696473 L156.680828,41.6344753 C156.950963,41.6344753 157.221099,41.7020613 157.221099,42.0384894 L157.221099,47.1059372 C157.221099,47.378534 157.086031,47.5114532 156.680828,47.5790391 C153.439202,48.0521411 149.927441,48.392324 146.282863,48.392324 C137.573245,48.392324 133.318611,44.0668202 133.318611,34.8075388 L133.318611,32.0395168 C133.318611,23.4575972 138.449684,19.4707744 146.420182,19.4707744 C154.114541,19.5383604 157.895687,23.4583482 157.895687,30.956639 L157.894937,30.955888 Z M150.398677,30.212442 C150.398677,26.9705671 149.320386,25.1457452 146.282863,25.1457452 C143.243839,25.1457452 141.487958,26.4974651 141.487958,30.6877969 L141.487958,31.8367588 L150.400928,31.8367588 L150.400928,30.2146949 L150.399427,30.212442 L150.398677,30.212442 Z M191.995038,27.3077461 L191.995038,34.4718617 C191.995038,44.8095152 186.322193,48.525994 176.600318,48.525994 C166.87544,48.525994 161.339164,44.8087643 161.339164,34.4711107 L161.339164,27.3069952 C161.339164,16.9678397 166.944475,13.2513609 176.600318,13.2513609 C186.390477,13.2513609 191.996539,17.0346748 191.996539,27.3062442 L191.995038,27.3062442 L191.995038,27.3077461 Z M169.780147,26.8346442 L169.780147,34.9449637 C169.780147,40.6221873 172.141581,42.2419983 176.601068,42.2419983 C181.122836,42.2419983 183.487271,40.6221873 183.487271,34.9457146 L183.487271,26.8353951 C183.487271,21.1581715 181.19112,19.6059464 176.600318,19.6059464 C172.210616,19.5383604 169.779397,21.1604243 169.779397,26.8353951 L169.780147,26.8346442 Z M219.407786,14.3334878 C220.218193,14.5362458 220.69093,14.8741758 220.69093,15.6852077 L220.69093,19.4024375 C220.69093,19.8755395 220.420794,20.1458834 219.880523,20.1458834 L219.745455,20.1458834 C217.989575,19.7403675 214.612881,19.4024375 211.168654,19.4024375 C206.778953,19.4024375 203.607112,20.0782974 203.607112,21.9707053 C203.607112,23.4575972 205.160391,24.4713872 206.916271,25.2133312 L214.207678,28.187115 C219.272718,30.2146949 222.041607,32.7829628 222.041607,37.5800665 C222.041607,43.9331502 218.529846,48.525994 207.118123,48.525994 C204.145132,48.525994 199.284194,48.12198 196.314955,47.175776 C195.369481,46.8378461 195.234413,46.3647441 195.234413,45.6212981 L195.234413,42.1068264 C195.234413,41.6337244 195.570581,41.3648823 196.044819,41.3648823 L196.179887,41.3648823 C198.070835,41.7005594 201.513562,42.1068264 204.686903,42.1068264 C210.967553,42.1068264 213.464055,40.4847625 213.464055,38.5247686 C213.464055,37.2406347 212.113378,36.1607606 210.087362,35.3482268 L202.863489,32.5118678 C198.340971,30.8222179 195.166129,27.7808481 195.166129,22.7141513 C195.166129,16.9693416 200.231169,13.0493539 209.478807,13.0493539 C212.585365,13.1860278 216.502329,13.5224559 219.406285,14.3334878 L219.407786,14.3334878 Z M21.1208424,29.5245668 C21.1208424,24.7635089 25.0077918,20.794709 29.8439672,20.794709 C34.6823937,20.794709 38.5678423,24.6846585 38.5678423,29.5253178 C38.5678423,34.365977 34.6823937,38.2559265 29.8439672,38.2559265 C25.0070414,38.2559265 21.1208424,34.365977 21.1208424,29.5245668 L21.1208424,29.5245668 Z" fill="#EDEDF5"></path>
                <path d="M12.7939163,44.8433082 C6.84493283,40.3188013 2.56253515,33.8906221 0.817910194,26.3510288 C0.739120679,27.3820907 0.660331165,28.4927539 0.660331165,29.5253178 C0.660331165,45.6363172 13.7453935,58.7329813 29.8439672,58.7329813 L31.2719333,58.7329813 C23.2616661,56.9855079 16.6005754,51.8256926 12.7939163,44.8440592 L12.7939163,44.8433082 Z" fill="url(#linearGradient-1)"></path>
                <path d="M12.7939163,44.8433082 C10.6530927,40.8752593 9.46224545,36.3500014 9.46224545,31.5889435 C9.46224545,16.270953 21.9139902,3.8095973 37.2201664,3.8095973 C39.9965588,3.8095973 42.6919106,4.20610181 45.2304337,4.99986178 C44.9925644,4.84216112 44.834235,4.60335727 44.5956153,4.4441547 C40.2359289,1.90592508 35.1596331,0.396504509 29.7666784,0.396504509 C14.777161,0.396504509 2.32541623,11.8260474 0.740621432,26.4283772 C2.5640359,33.8898712 6.84643358,40.3180503 12.7939163,44.8433082 L12.7939163,44.8433082 Z" fill="url(#linearGradient-2)"></path>
                <path d="M44.594865,4.44565661 C44.8334846,4.60335727 44.9925644,4.84216112 45.2296833,5.00136369 C45.3872624,5.07946306 45.5463421,5.07946306 45.7849618,5.15906435 L44.594865,4.44565661 L44.594865,4.44565661 Z" fill="#2FF4AD"></path>
                <path d="M45.8645017,48.493703 C41.7404334,50.399628 37.2201664,51.429939 32.4627805,51.429939 C25.0865813,51.429939 18.3467011,48.9705597 12.8742066,44.8440592 C16.6808657,51.8279454 23.3419563,56.9870098 31.2734341,58.7322304 C35.4770422,58.4941775 39.6003601,57.4608627 43.2494402,55.4775892 C45.7857122,54.2084744 46.8962691,51.1115339 45.8645017,48.493703 L45.8645017,48.493703 Z" fill="url(#linearGradient-3)"></path>
                <path d="M53.9535585,24.8416082 C53.9535585,28.7315578 53.1604107,32.3812016 51.6529047,35.715444 C52.2081831,35.8746466 52.7634616,35.9534969 53.39828,35.9534969 C56.4913312,35.9534969 59.0291039,33.4137654 59.0291039,30.3183268 L59.0291039,29.4449655 C59.0291039,19.2064381 53.7944787,10.2377765 45.7849618,4.99986178 C45.6273828,4.92101145 45.4675526,4.92101145 45.2296833,4.84216112 C50.622638,9.92162419 53.9535585,16.9851117 53.9535585,24.8423592 L53.9535585,24.8416082 Z" fill="url(#linearGradient-4)"></path>
                <path d="M38.0928541,45.556716 C35.554331,46.9046811 32.778689,47.5407404 29.8439672,47.5407404 C19.9314959,47.5407404 11.8424392,39.44544 11.8424392,29.5253178 C11.8424392,19.6051955 19.9314959,11.5098951 29.8439672,11.5098951 C39.6776489,11.5879945 47.7674561,20.4763039 47.7674561,30.3979281 L47.7674561,30.4767784 C47.7674561,32.9369086 49.4332915,35.0801357 51.6529047,35.7935434 C53.1611611,32.4615538 53.9535585,28.7308068 53.9535585,24.9212095 C53.9535585,17.063962 50.6218876,9.92087323 45.2304337,4.99986178 C42.692661,4.20535085 39.9958085,3.80884634 37.2201664,3.80884634 C21.9147406,3.80884634 9.4637462,16.2694511 9.4637462,31.5866906 C9.4637462,36.3477486 10.6530927,40.8745084 12.793166,44.8425573 C18.2649101,48.9675559 25.006291,51.4284371 32.3809895,51.4284371 C37.1383754,51.4284371 41.739683,50.3966242 45.7827107,48.492201 C45.7046715,48.3360023 45.6251317,48.0956965 45.5463421,47.936494 C44.1971655,45.2375599 40.7867051,44.1268967 38.0913534,45.555965 L38.0928541,45.556716 Z" fill="url(#linearGradient-5)"></path>
            </g>
        </g>
    </g>
</svg>