<?xml version="1.0" encoding="utf-8"?>
<!-- Generator: Adobe Illustrator 16.0.0, SVG Export Plug-In . SVG Version: 6.00 Build 0)  -->
<!DOCTYPE svg PUBLIC "-//W3C//DTD SVG 1.1//EN" "http://www.w3.org/Graphics/SVG/1.1/DTD/svg11.dtd">
<svg version="1.1" id="Capa_1" xmlns="http://www.w3.org/2000/svg" xmlns:xlink="http://www.w3.org/1999/xlink" x="0px" y="0px"
	 width="523.5px" height="381px" viewBox="0 0 523.5 381" enable-background="new 0 0 523.5 381" xml:space="preserve">
<g>
	<g>
		<path opacity="0.4" fill="#2FDAEB" d="M374.8,385.9c3.4,5.6,6.9,12.8,6.9,12.8s-8,1-14.4,1c-5.2,0-14.5-0.5-14.5-0.5
			s3.6-8.1,6.3-13.1c2.3-4.2,7.6-12.3,7.6-12.3S371.1,379.8,374.8,385.9z"/>
		<path opacity="0.4" fill="#2FDAEB" d="M369.1,381.5c5.1,5.5,10.9,12.7,10.9,12.7s-8.7,3.1-16,4.6c-5.9,1.2-16.5,3-16.5,3
			s2.1-10,4-16.2c1.6-5.3,5.6-15.6,5.6-15.6S363.5,375.6,369.1,381.5z"/>
		<path opacity="0.4" fill="#2FDAEB" d="M363.3,377.2c7.1,4.9,15.3,11.7,15.3,11.7s-9.1,5.6-16.8,9c-6.3,2.8-17.8,7.3-17.8,7.3
			s0-11.7,0.6-19.2c0.5-6.4,2.5-18.9,2.5-18.9S355.5,371.8,363.3,377.2z"/>
		<path opacity="0.4" fill="#2FDAEB" d="M357.1,372.9c9.1,3.8,20,9.5,20,9.5s-8.9,8.4-16.8,14.1C353.8,401.2,342,409,342,409
			s-2.8-13.2-3.9-21.8c-1-7.3-1.7-21.9-1.7-21.9S347.1,368.7,357.1,372.9z"/>
		<path opacity="0.4" fill="#2FDAEB" d="M350.1,368.9c11.2,2.1,24.7,5.9,24.7,5.9s-8,11.6-15.5,19.9c-6.1,6.8-17.6,18.4-17.6,18.4
			s-6.3-14.2-9.6-23.5c-2.8-8-7.1-24.2-7.1-24.2S337.8,366.6,350.1,368.9z"/>
		<path opacity="0.4" fill="#2FDAEB" d="M341.5,365.8c13.1-0.3,29.2,0.7,29.2,0.7s-6.2,15-12.7,26.1c-5.3,9.1-15.4,24.9-15.4,24.9
			s-10.5-14.5-16.5-24.2c-5.1-8.3-13.8-25.6-13.8-25.6S327.1,366.1,341.5,365.8z"/>
		<path opacity="0.4" fill="#2FDAEB" d="M331.7,363.6c14.6-3.4,33-6.2,33-6.2s-3.4,18.3-8.1,32.4c-3.8,11.5-11.4,31.7-11.4,31.7
			S330,407.7,321,398.2c-7.7-8.1-21.6-25.5-21.6-25.5S315.6,367.3,331.7,363.6z"/>
		<path opacity="0.4" fill="#2FDAEB" d="M320,361.5c15.6-7.4,35.7-14.8,35.7-14.8s0.5,21.4-1.3,38.4c-1.5,13.8-5.3,38.3-5.3,38.3
			s-20.4-11.8-32.9-20.3c-10.6-7.3-30.4-23.5-30.4-23.5S302.7,369.6,320,361.5z"/>
		<path opacity="0.4" fill="#2FDAEB" d="M306.4,360c15.8-12,36.6-25.2,36.6-25.2s5.7,24,7.7,43.5c1.6,15.9,3.3,44.4,3.3,44.4
			s-25.8-8.4-41.9-15c-13.7-5.6-39.8-19.1-39.8-19.1S289,373.3,306.4,360z"/>
		<path opacity="0.4" fill="#2FDAEB" d="M292.1,359.5c14.9-17.3,35.1-37.1,35.1-37.1s12.2,25.6,19.1,47.1
			c5.6,17.5,14.3,49.2,14.3,49.2s-31.1-3.3-50.7-6.9c-16.7-3.1-49.4-12-49.4-12S275.7,378.6,292.1,359.5z"/>
		<path opacity="0.4" fill="#2FDAEB" d="M278.3,359.6c12.7-23.1,30.7-50.2,30.7-50.2s19.8,25.9,32.7,48.4
			c10.5,18.4,27.8,51.9,27.8,51.9s-35.7,3.7-58.6,4.4c-19.5,0.5-58.4-1.7-58.4-1.7S264.3,384.9,278.3,359.6z"/>
		<path opacity="0.4" fill="#2FDAEB" d="M264.6,361.2c8.7-29,22.5-63.8,22.5-63.8s28.5,24.4,48.3,46.6
			c16.2,18.1,43.7,51.7,43.7,51.7s-39.3,12.7-64.9,18.9c-21.8,5.3-66.1,12.1-66.1,12.1S255,393,264.6,361.2z"/>
		<path opacity="0.4" fill="#2FDAEB" d="M252.8,366.6c2.9-34.7,10.1-77.1,10.1-77.1s37.9,20.6,65.5,40.9
			c22.6,16.5,61.5,47.7,61.5,47.7s-41.2,23.7-68.5,36.8c-23.3,11.2-71.5,29.4-71.5,29.4S249.6,404.7,252.8,366.6z"/>
		<path opacity="0.4" fill="#2FDAEB" d="M243.6,375.8c-5-39.7-7.1-89.1-7.1-89.1S284,300.9,320,317c29.4,13.2,80.6,39,80.6,39
			s-40.6,36.5-68.3,57.8c-23.5,18.1-73.4,50.1-73.4,50.1S249.1,419.5,243.6,375.8z"/>
		<path opacity="0.4" fill="#2FDAEB" d="M235.9,389.4c-15.1-43.4-29.3-98.6-29.3-98.6s56.8,4.6,101.1,14.1
			c36.2,7.8,100,24.6,100,24.6s-37,50.8-63,81.3c-22.1,26-70.6,73.9-70.6,73.9S252.5,437.2,235.9,389.4z"/>
		<path opacity="0.4" fill="#2FDAEB" d="M228.8,408.6c-27.4-45.3-56.5-103.9-56.5-103.9s65-8.5,117.1-8.3
			c42.6,0.1,118.3,3.7,118.3,3.7s-29.4,66-51.4,106.5c-18.7,34.6-61.7,100-61.7,100S258.9,458.4,228.8,408.6z"/>
		<path opacity="0.4" fill="#2FDAEB" d="M224.7,432.1c-41.7-44.4-88.4-103.3-88.4-103.3s71.1-25.1,129.8-37.3
			c47.9-10,134-24.1,134-24.1s-17.3,81.2-32.3,132.1c-12.8,43.3-45.5,127.3-45.5,127.3S270.5,480.8,224.7,432.1z"/>
	</g>
	<g>
		<linearGradient id="SVGID_1_" gradientUnits="userSpaceOnUse" x1="662.1943" y1="442.8799" x2="688.1992" y2="442.8799">
			<stop  offset="6.750610e-03" style="stop-color:#2FDAEB"/>
			<stop  offset="1" style="stop-color:#07FAA0"/>
		</linearGradient>
		<path opacity="0.4" fill="url(#SVGID_1_)" d="M687.8,442.8c0.5,6.5,0.3,14.5,0.3,14.5s-7.6-2.7-13.3-5.7
			c-4.6-2.4-12.7-7.1-12.7-7.1s6.9-5.6,11.6-8.8c4-2.7,12.4-7.5,12.4-7.5S687.3,435.7,687.8,442.8z"/>
		<linearGradient id="SVGID_2_" gradientUnits="userSpaceOnUse" x1="656.4053" y1="436.5654" x2="688.6895" y2="436.5654">
			<stop  offset="6.750610e-03" style="stop-color:#2FDAEB"/>
			<stop  offset="1" style="stop-color:#07FAA0"/>
		</linearGradient>
		<path opacity="0.4" fill="url(#SVGID_2_)" d="M684.8,436.4c2.1,7.2,3.9,16.3,3.9,16.3s-9.2-1.3-16.3-3.2c-5.8-1.6-16-4.9-16-4.9
			s6.5-7.9,11-12.6c3.8-4,12.1-11.4,12.1-11.4S682.6,428.4,684.8,436.4z"/>
		<linearGradient id="SVGID_3_" gradientUnits="userSpaceOnUse" x1="651.6084" y1="430.4482" x2="689.8604" y2="430.4482">
			<stop  offset="6.750610e-03" style="stop-color:#2FDAEB"/>
			<stop  offset="1" style="stop-color:#07FAA0"/>
		</linearGradient>
		<path opacity="0.4" fill="url(#SVGID_3_)" d="M681.6,429.8c4,7.6,8.2,17.4,8.2,17.4s-10.6,0.8-19.1,0.3
			c-6.9-0.4-19.2-1.7-19.2-1.7s5.4-10.4,9.3-16.8c3.3-5.4,10.9-15.7,10.9-15.7S677.2,421.5,681.6,429.8z"/>
		<linearGradient id="SVGID_4_" gradientUnits="userSpaceOnUse" x1="648.1543" y1="427.625" x2="691.5234" y2="427.625">
			<stop  offset="6.750610e-03" style="stop-color:#2FDAEB"/>
			<stop  offset="1" style="stop-color:#07FAA0"/>
		</linearGradient>
		<path opacity="0.4" fill="url(#SVGID_4_)" d="M678.1,423.2c6.4,7.6,13.4,17.6,13.4,17.6s-11.8,3.4-21.4,4.9
			c-7.9,1.2-22,2.7-22,2.7s3.6-13,6.4-21.1c2.5-6.9,8.5-20.2,8.5-20.2S671.1,414.9,678.1,423.2z"/>
		<linearGradient id="SVGID_5_" gradientUnits="userSpaceOnUse" x1="645.9326" y1="426.7725" x2="692.9043" y2="426.7725">
			<stop  offset="6.750610e-03" style="stop-color:#2FDAEB"/>
			<stop  offset="1" style="stop-color:#07FAA0"/>
		</linearGradient>
		<path opacity="0.4" fill="url(#SVGID_5_)" d="M673.6,416.4c9,7,19.3,16.6,19.3,16.6s-12.4,6.7-22.9,10.6
			c-8.6,3.2-24.1,8.3-24.1,8.3s0.9-15.5,2.2-25.3c1.1-8.4,4.8-24.8,4.8-24.8S663.8,408.7,673.6,416.4z"/>
		<linearGradient id="SVGID_6_" gradientUnits="userSpaceOnUse" x1="640.5625" y1="427.1836" x2="693.0605" y2="427.1836">
			<stop  offset="6.750610e-03" style="stop-color:#2FDAEB"/>
			<stop  offset="1" style="stop-color:#07FAA0"/>
		</linearGradient>
		<path opacity="0.4" fill="url(#SVGID_6_)" d="M667.4,409.7c11.8,5.7,25.6,14,25.6,14s-12.4,10.5-23.2,17.4
			c-8.9,5.7-25.1,15.1-25.1,15.1s-2.7-17.6-3.6-29c-0.7-9.7-0.6-29-0.6-29S654.5,403.4,667.4,409.7z"/>
		<linearGradient id="SVGID_7_" gradientUnits="userSpaceOnUse" x1="626.7744" y1="428.7588" x2="691.9297" y2="428.7588">
			<stop  offset="6.750610e-03" style="stop-color:#2FDAEB"/>
			<stop  offset="1" style="stop-color:#07FAA0"/>
		</linearGradient>
		<path opacity="0.4" fill="url(#SVGID_7_)" d="M659.7,403.2c14.6,3.6,32.2,9.6,32.2,9.6s-11.4,14.7-22,25.1
			c-8.6,8.5-24.6,22.9-24.6,22.9s-7.3-19.2-11-31.8c-3.2-10.7-7.6-32.5-7.6-32.5S643.7,399.2,659.7,403.2z"/>
		<linearGradient id="SVGID_8_" gradientUnits="userSpaceOnUse" x1="611.624" y1="430.0762" x2="688.8027" y2="430.0762">
			<stop  offset="6.750610e-03" style="stop-color:#2FDAEB"/>
			<stop  offset="1" style="stop-color:#07FAA0"/>
		</linearGradient>
		<path opacity="0.4" fill="url(#SVGID_8_)" d="M650.3,396c17.3,0.6,38.5,3.1,38.5,3.1s-9.3,19.3-18.7,33.5
			c-7.7,11.6-22.2,31.7-22.2,31.7s-12.8-19.9-19.9-33.1c-6.1-11.3-16.3-34.8-16.3-34.8S631.3,395.3,650.3,396z"/>
		<linearGradient id="SVGID_9_" gradientUnits="userSpaceOnUse" x1="595.5029" y1="424.4346" x2="682.9639" y2="424.4346">
			<stop  offset="6.750610e-03" style="stop-color:#2FDAEB"/>
			<stop  offset="1" style="stop-color:#07FAA0"/>
		</linearGradient>
		<path opacity="0.4" fill="url(#SVGID_9_)" d="M638.9,388.5c19.6-3.5,44.1-5.7,44.1-5.7s-5.9,23.9-13,42.2c-6,15.2-6,15.2-17.4,41
			c0,0-19.1-19.3-30.4-32.5c-9.6-11.2-26.7-35.2-26.7-35.2S617.3,392.3,638.9,388.5z"/>
		<linearGradient id="SVGID_10_" gradientUnits="userSpaceOnUse" x1="579.9639" y1="415.0244" x2="674.6572" y2="415.0244">
			<stop  offset="6.750610e-03" style="stop-color:#2FDAEB"/>
			<stop  offset="1" style="stop-color:#07FAA0"/>
		</linearGradient>
		<path opacity="0.4" fill="url(#SVGID_10_)" d="M626.4,381.6c21.2-8.6,48.2-16.9,48.2-16.9s-0.9,28.3-4.6,50.6
			c-3,18.2-9.8,50.2-9.8,50.2s-26.1-17.1-41.9-29.3c-13.5-10.4-38.4-33.3-38.4-33.3S603.1,391,626.4,381.6z"/>
		<linearGradient id="SVGID_11_" gradientUnits="userSpaceOnUse" x1="566.9131" y1="403.0781" x2="672.2441" y2="403.0781">
			<stop  offset="6.750610e-03" style="stop-color:#2FDAEB"/>
			<stop  offset="1" style="stop-color:#07FAA0"/>
		</linearGradient>
		<path opacity="0.4" fill="url(#SVGID_11_)" d="M614.1,375.3c21.8-14.7,50.2-30.6,50.2-30.6s5.8,32.1,6.9,58c1,21.2,1,58.9,1,58.9
			s-33.5-13-54.2-22.9c-17.6-8.4-51.2-28.2-51.2-28.2S590.1,391.4,614.1,375.3z"/>
		<linearGradient id="SVGID_12_" gradientUnits="userSpaceOnUse" x1="556.4844" y1="388.7822" x2="687.1982" y2="388.7822">
			<stop  offset="6.750610e-03" style="stop-color:#2FDAEB"/>
			<stop  offset="1" style="stop-color:#07FAA0"/>
		</linearGradient>
		<path opacity="0.4" fill="url(#SVGID_12_)" d="M601.2,370.4c21-21.8,49.2-46.4,49.2-46.4s14.2,34.7,21.7,63.5
			c6.1,23.6,15.2,66,15.2,66s-40.8-6.6-66.4-12.9c-21.8-5.3-64.3-19.5-64.3-19.5S578,394.4,601.2,370.4z"/>
		<linearGradient id="SVGID_13_" gradientUnits="userSpaceOnUse" x1="550.0771" y1="375.1436" x2="704.8525" y2="375.1436">
			<stop  offset="6.750610e-03" style="stop-color:#2FDAEB"/>
			<stop  offset="1" style="stop-color:#07FAA0"/>
		</linearGradient>
		<path opacity="0.4" fill="url(#SVGID_13_)" d="M588.2,369.9c18.4-29.5,44.2-64,44.2-64s24.2,35.7,39.6,66.3
			c12.5,25,32.9,70.6,32.9,70.6s-47.4,2.3-77.8,1.4c-25.8-0.7-77-6.6-77-6.6S567.9,402.3,588.2,369.9z"/>
		<linearGradient id="SVGID_14_" gradientUnits="userSpaceOnUse" x1="549.1377" y1="375.29" x2="724.4697" y2="375.29">
			<stop  offset="6.750610e-03" style="stop-color:#2FDAEB"/>
			<stop  offset="1" style="stop-color:#07FAA0"/>
		</linearGradient>
		<path opacity="0.4" fill="url(#SVGID_14_)" d="M575.8,373.9c13.7-37.6,34.4-82.5,34.4-82.5s35.8,34.3,60.4,65.1
			c20.1,25.2,53.9,71.5,53.9,71.5s-52.8,13.9-87.1,20.2c-29.2,5.4-88.2,11-88.2,11S560.8,415.2,575.8,373.9z"/>
		<linearGradient id="SVGID_15_" gradientUnits="userSpaceOnUse" x1="553.1475" y1="383.0352" x2="742.9072" y2="383.0352">
			<stop  offset="6.750610e-03" style="stop-color:#2FDAEB"/>
			<stop  offset="1" style="stop-color:#07FAA0"/>
		</linearGradient>
		<path opacity="0.4" fill="url(#SVGID_15_)" d="M562.8,382.4c6.4-45.6,19-101,19-101s48.5,30,83.5,58.8
			c28.6,23.5,77.7,67.6,77.7,67.6s-56.1,28.3-93.2,43.5c-31.6,13-96.6,33.5-96.6,33.5S555.7,432.5,562.8,382.4z"/>
		<linearGradient id="SVGID_16_" gradientUnits="userSpaceOnUse" x1="544.7285" y1="395.8838" x2="756.3213" y2="395.8838">
			<stop  offset="6.750610e-03" style="stop-color:#2FDAEB"/>
			<stop  offset="1" style="stop-color:#07FAA0"/>
		</linearGradient>
		<path opacity="0.4" fill="url(#SVGID_16_)" d="M547.6,396.3c-3.7-52.8-2.8-118.2-2.8-118.2s61.7,22.2,108,46.2
			c37.8,19.6,103.5,57.4,103.5,57.4s-56.3,45.2-94.4,71.3c-32.4,22.2-100.6,60.8-100.6,60.8S551.7,454.3,547.6,396.3z"/>
		<linearGradient id="SVGID_17_" gradientUnits="userSpaceOnUse" x1="501.8984" y1="413.5146" x2="764.5781" y2="413.5146">
			<stop  offset="6.750610e-03" style="stop-color:#2FDAEB"/>
			<stop  offset="1" style="stop-color:#07FAA0"/>
		</linearGradient>
		<path opacity="0.4" fill="url(#SVGID_17_)" d="M533.3,415.2c-16.8-58.5-31.4-132.3-31.4-132.3s74.7,10.2,132.5,26.1
			c47.2,13,130.2,39.9,130.2,39.9s-52.6,64.3-89.2,102.7c-31.2,32.7-98.7,92.4-98.7,92.4S551.7,479.6,533.3,415.2z"/>
	</g>
	<g>
		<linearGradient id="SVGID_18_" gradientUnits="userSpaceOnUse" x1="331.2441" y1="324.6426" x2="373.2881" y2="324.6426">
			<stop  offset="6.750610e-03" style="stop-color:#2FDAEB"/>
			<stop  offset="1" style="stop-color:#07FAA0"/>
		</linearGradient>
		<path opacity="0.4" fill="url(#SVGID_18_)" d="M337.1,325c-3-9.2-5.8-20.7-5.8-20.7s11.9,1.1,21.2,3.3c7.6,1.8,20.9,5.5,20.9,5.5
			s-7.9,10.5-13.4,16.9c-4.7,5.4-15,15.3-15,15.3S340.4,335,337.1,325z"/>
		<linearGradient id="SVGID_19_" gradientUnits="userSpaceOnUse" x1="332.2764" y1="331.8799" x2="381.6523" y2="331.8799">
			<stop  offset="6.750610e-03" style="stop-color:#2FDAEB"/>
			<stop  offset="1" style="stop-color:#07FAA0"/>
		</linearGradient>
		<path opacity="0.4" fill="url(#SVGID_19_)" d="M343.8,333.2c-5.6-9.6-11.5-21.9-11.5-21.9s13.7-1.6,24.6-1.4
			c8.9,0.2,24.8,1.1,24.8,1.1s-6.4,13.7-11.1,22.2c-4,7.2-13.2,20.8-13.2,20.8S350,343.7,343.8,333.2z"/>
		<linearGradient id="SVGID_20_" gradientUnits="userSpaceOnUse" x1="332.5957" y1="334.457" x2="388.0791" y2="334.457">
			<stop  offset="6.750610e-03" style="stop-color:#2FDAEB"/>
			<stop  offset="1" style="stop-color:#07FAA0"/>
		</linearGradient>
		<path opacity="0.4" fill="url(#SVGID_20_)" d="M350.8,341.4c-8.6-9.4-18.2-21.9-18.2-21.9s15-5,27.3-7.4c10.1-2,28.2-4.6,28.2-4.6
			s-3.9,17-7.2,27.6c-2.8,9-9.9,26.5-9.9,26.5S360.3,351.8,350.8,341.4z"/>
		<linearGradient id="SVGID_21_" gradientUnits="userSpaceOnUse" x1="332.5781" y1="334.9404" x2="392.0996" y2="334.9404">
			<stop  offset="6.750610e-03" style="stop-color:#2FDAEB"/>
			<stop  offset="1" style="stop-color:#07FAA0"/>
		</linearGradient>
		<path opacity="0.4" fill="url(#SVGID_21_)" d="M358.3,349.6c-11.9-8.5-25.7-20.3-25.7-20.3s15.6-9.2,28.9-14.9
			c10.9-4.6,30.6-12,30.6-12s-0.3,20-1.5,32.8c-1,10.8-4.8,32.2-4.8,32.2S371.4,359,358.3,349.6z"/>
		<linearGradient id="SVGID_22_" gradientUnits="userSpaceOnUse" x1="333.46" y1="333.8682" x2="402.4766" y2="333.8682">
			<stop  offset="6.750610e-03" style="stop-color:#2FDAEB"/>
			<stop  offset="1" style="stop-color:#07FAA0"/>
		</linearGradient>
		<path opacity="0.4" fill="url(#SVGID_22_)" d="M367.3,357.7c-15.5-6.8-33.8-16.7-33.8-16.7s15.4-14.1,29-23.7
			c11.1-7.8,31.5-20.8,31.5-20.8s4.4,22.6,6.2,37.2c1.5,12.4,2.3,37.4,2.3,37.4S384.3,365.1,367.3,357.7z"/>
		<linearGradient id="SVGID_23_" gradientUnits="userSpaceOnUse" x1="336.6338" y1="330.7861" x2="421.4814" y2="330.7861">
			<stop  offset="6.750610e-03" style="stop-color:#2FDAEB"/>
			<stop  offset="1" style="stop-color:#07FAA0"/>
		</linearGradient>
		<path opacity="0.4" fill="url(#SVGID_23_)" d="M378.7,365c-19-3.9-42-10.7-42-10.7s13.9-19.6,27-33.6
			c10.7-11.4,30.5-30.9,30.5-30.9s10.4,24.4,15.9,40.4c4.6,13.6,11.5,41.5,11.5,41.5S399.6,369.3,378.7,365z"/>
		<linearGradient id="SVGID_24_" gradientUnits="userSpaceOnUse" x1="342.2783" y1="327.4092" x2="441.8916" y2="327.4092">
			<stop  offset="6.750610e-03" style="stop-color:#2FDAEB"/>
			<stop  offset="1" style="stop-color:#07FAA0"/>
		</linearGradient>
		<path opacity="0.4" fill="url(#SVGID_24_)" d="M392.1,371.5c-22.3,0.2-49.8-2-49.8-2s11-25.4,22.3-44.2
			c9.3-15.4,26.9-42.1,26.9-42.1s17.5,24.9,27.5,41.6c8.5,14.2,22.9,44,22.9,44S416.6,371.4,392.1,371.5z"/>
		<linearGradient id="SVGID_25_" gradientUnits="userSpaceOnUse" x1="351.8242" y1="333.6963" x2="463.7148" y2="333.6963">
			<stop  offset="6.750610e-03" style="stop-color:#2FDAEB"/>
			<stop  offset="1" style="stop-color:#07FAA0"/>
		</linearGradient>
		<path opacity="0.4" fill="url(#SVGID_25_)" d="M408.3,378.4c-25.1,5.5-56.5,9.7-56.5,9.7s6.3-31.2,14.5-55.1
			c6.7-19.5,20.2-53.7,20.2-53.7s25.7,23.8,40.9,40.3c12.9,14,36.3,44,36.3,44S435.9,372.3,408.3,378.4z"/>
		<linearGradient id="SVGID_26_" gradientUnits="userSpaceOnUse" x1="366.2041" y1="343.9873" x2="486.2021" y2="343.9873">
			<stop  offset="6.750610e-03" style="stop-color:#2FDAEB"/>
			<stop  offset="1" style="stop-color:#07FAA0"/>
		</linearGradient>
		<path opacity="0.4" fill="url(#SVGID_26_)" d="M427.5,384.9c-26.9,12.2-61.2,24.4-61.2,24.4s-0.4-36.6,3.2-65.4
			c2.9-23.6,9.9-65.3,9.9-65.3s34.6,20.7,55.6,35.5c17.9,12.6,51.3,40.8,51.3,40.8S457,371.5,427.5,384.9z"/>
		<linearGradient id="SVGID_27_" gradientUnits="userSpaceOnUse" x1="368.3359" y1="357.4111" x2="506.8408" y2="357.4111">
			<stop  offset="6.750610e-03" style="stop-color:#2FDAEB"/>
			<stop  offset="1" style="stop-color:#07FAA0"/>
		</linearGradient>
		<path opacity="0.4" fill="url(#SVGID_27_)" d="M447.9,390.4c-27.3,20.1-63.1,42.1-63.1,42.1s-9.2-41-12.1-74.3
			c-2.4-27.2-4.5-75.8-4.5-75.8s43.8,15,71,26.6c23.2,9.9,67.5,33.6,67.5,33.6S478,368.2,447.9,390.4z"/>
		<linearGradient id="SVGID_28_" gradientUnits="userSpaceOnUse" x1="352.6318" y1="374.8643" x2="522.8389" y2="374.8643">
			<stop  offset="6.750610e-03" style="stop-color:#2FDAEB"/>
			<stop  offset="1" style="stop-color:#07FAA0"/>
		</linearGradient>
		<path opacity="0.4" fill="url(#SVGID_28_)" d="M468,394.9c-25.9,29.2-60.9,62.5-60.9,62.5s-20.1-44-31.4-80.7
			c-9.2-30-23.1-84.2-23.1-84.2s52.9,6.4,86.3,13c28.4,5.6,83.9,21.7,83.9,21.7S496.5,362.8,468,394.9z"/>
		<linearGradient id="SVGID_29_" gradientUnits="userSpaceOnUse" x1="334.0752" y1="392.5635" x2="533.8252" y2="392.5635">
			<stop  offset="6.750610e-03" style="stop-color:#2FDAEB"/>
			<stop  offset="1" style="stop-color:#07FAA0"/>
		</linearGradient>
		<path opacity="0.4" fill="url(#SVGID_29_)" d="M488.3,397c-22.2,39-53.5,84.8-53.5,84.8s-33.1-44.7-54.6-83.3
			c-17.5-31.6-46.2-89.2-46.2-89.2s61-5.5,100.1-6c33.3-0.5,99.6,4.3,99.6,4.3S512.7,354.1,488.3,397z"/>
		<linearGradient id="SVGID_30_" gradientUnits="userSpaceOnUse" x1="312.6797" y1="391.46" x2="536.9707" y2="391.46">
			<stop  offset="6.750610e-03" style="stop-color:#2FDAEB"/>
			<stop  offset="1" style="stop-color:#07FAA0"/>
		</linearGradient>
		<path opacity="0.4" fill="url(#SVGID_30_)" d="M507.2,393.1c-15.6,49.2-39.9,108.2-39.9,108.2s-48-42.3-81.3-80.7
			c-27.2-31.4-73.3-89.3-73.3-89.3s67.3-20.7,111.2-30.7c37.4-8.5,113.1-19,113.1-19S524.4,339,507.2,393.1z"/>
		<linearGradient id="SVGID_31_" gradientUnits="userSpaceOnUse" x1="289.9355" y1="382.1357" x2="530.3584" y2="382.1357">
			<stop  offset="6.750610e-03" style="stop-color:#2FDAEB"/>
			<stop  offset="1" style="stop-color:#07FAA0"/>
		</linearGradient>
		<path opacity="0.4" fill="url(#SVGID_31_)" d="M523.5,382.7c-5.8,59.1-19.1,131.3-19.1,131.3c-63.5-35.8-63.5-35.7-110.7-71.3
			c-38.1-28.8-103.8-82.9-103.8-82.9s70.8-39.4,117.8-61.1c40-18.5,122.7-48.4,122.7-48.4S529.9,317.8,523.5,382.7z"/>
		<linearGradient id="SVGID_32_" gradientUnits="userSpaceOnUse" x1="270.9238" y1="366.4971" x2="549.0791" y2="366.4971">
			<stop  offset="6.750610e-03" style="stop-color:#2FDAEB"/>
			<stop  offset="1" style="stop-color:#07FAA0"/>
		</linearGradient>
		<path opacity="0.4" fill="url(#SVGID_32_)" d="M539.1,365.7c7.6,67.8,10,152.2,10,152.2s-80.7-25.3-141.6-53.7
			c-49.8-23.2-136.5-68.5-136.5-68.5s70.2-61.3,117.9-96.9c40.6-30.4,126.4-83.7,126.4-83.7S530.8,291.1,539.1,365.7z"/>
		<linearGradient id="SVGID_33_" gradientUnits="userSpaceOnUse" x1="261.2451" y1="342.7275" x2="603.3467" y2="342.7275">
			<stop  offset="6.750610e-03" style="stop-color:#2FDAEB"/>
			<stop  offset="1" style="stop-color:#07FAA0"/>
		</linearGradient>
		<path opacity="0.4" fill="url(#SVGID_33_)" d="M555.8,340.2c24.8,74.5,47.6,168.8,47.6,168.8s-96.8-9.2-172.2-26.6
			c-61.6-14.2-170-44.4-170-44.4s64.3-85.7,109.4-137.2C409,257,492.8,176.5,492.8,176.5S528.5,258.2,555.8,340.2z"/>
		<linearGradient id="SVGID_34_" gradientUnits="userSpaceOnUse" x1="261.4492" y1="318.0312" x2="663.2275" y2="318.0312">
			<stop  offset="6.750610e-03" style="stop-color:#2FDAEB"/>
			<stop  offset="1" style="stop-color:#07FAA0"/>
		</linearGradient>
		<path opacity="0.4" fill="url(#SVGID_34_)" d="M569.3,307.6c45.7,77.9,93.9,178.5,93.9,178.5s-111.1,12.8-200,11.3
			c-72.6-1.3-201.8-9.3-201.8-9.3s51.8-111.8,90.2-180.5c32.7-58.5,107.7-169.2,107.7-169.2S519.1,222,569.3,307.6z"/>
	</g>
</g>
<g>
	<g>
		<path opacity="0.4" fill="#2FDAEB" d="M374.8,385.9c3.4,5.6,6.9,12.8,6.9,12.8s-8,1-14.4,1c-5.2,0-14.5-0.5-14.5-0.5
			s3.6-8.1,6.3-13.1c2.3-4.2,7.6-12.3,7.6-12.3S371.1,379.8,374.8,385.9z"/>
		<path opacity="0.4" fill="#2FDAEB" d="M369.1,381.5c5.1,5.5,10.9,12.7,10.9,12.7s-8.7,3.1-16,4.6c-5.9,1.2-16.5,3-16.5,3
			s2.1-10,4-16.2c1.6-5.3,5.6-15.6,5.6-15.6S363.5,375.6,369.1,381.5z"/>
		<path opacity="0.4" fill="#2FDAEB" d="M363.3,377.2c7.1,4.9,15.3,11.7,15.3,11.7s-9.1,5.6-16.8,9c-6.3,2.8-17.8,7.3-17.8,7.3
			s0-11.7,0.6-19.2c0.5-6.4,2.5-18.9,2.5-18.9S355.5,371.8,363.3,377.2z"/>
		<path opacity="0.4" fill="#2FDAEB" d="M357.1,372.9c9.1,3.8,20,9.5,20,9.5s-8.9,8.4-16.8,14.1C353.8,401.2,342,409,342,409
			s-2.8-13.2-3.9-21.8c-1-7.3-1.7-21.9-1.7-21.9S347.1,368.7,357.1,372.9z"/>
		<path opacity="0.4" fill="#2FDAEB" d="M350.1,368.9c11.2,2.1,24.7,5.9,24.7,5.9s-8,11.6-15.5,19.9c-6.1,6.8-17.6,18.4-17.6,18.4
			s-6.3-14.2-9.6-23.5c-2.8-8-7.1-24.2-7.1-24.2S337.8,366.6,350.1,368.9z"/>
		<path opacity="0.4" fill="#2FDAEB" d="M341.5,365.8c13.1-0.3,29.2,0.7,29.2,0.7s-6.2,15-12.7,26.1c-5.3,9.1-15.4,24.9-15.4,24.9
			s-10.5-14.5-16.5-24.2c-5.1-8.3-13.8-25.6-13.8-25.6S327.1,366.1,341.5,365.8z"/>
		<path opacity="0.4" fill="#2FDAEB" d="M331.7,363.6c14.6-3.4,33-6.2,33-6.2s-3.4,18.3-8.1,32.4c-3.8,11.5-11.4,31.7-11.4,31.7
			S330,407.7,321,398.2c-7.7-8.1-21.6-25.5-21.6-25.5S315.6,367.3,331.7,363.6z"/>
		<path opacity="0.4" fill="#2FDAEB" d="M320,361.5c15.6-7.4,35.7-14.8,35.7-14.8s0.5,21.4-1.3,38.4c-1.5,13.8-5.3,38.3-5.3,38.3
			s-20.4-11.8-32.9-20.3c-10.6-7.3-30.4-23.5-30.4-23.5S302.7,369.6,320,361.5z"/>
		<path opacity="0.4" fill="#2FDAEB" d="M306.4,360c15.8-12,36.6-25.2,36.6-25.2s5.7,24,7.7,43.5c1.6,15.9,3.3,44.4,3.3,44.4
			s-25.8-8.4-41.9-15c-13.7-5.6-39.8-19.1-39.8-19.1S289,373.3,306.4,360z"/>
		<path opacity="0.4" fill="#2FDAEB" d="M292.1,359.5c14.9-17.3,35.1-37.1,35.1-37.1s12.2,25.6,19.1,47.1
			c5.6,17.5,14.3,49.2,14.3,49.2s-31.1-3.3-50.7-6.9c-16.7-3.1-49.4-12-49.4-12S275.7,378.6,292.1,359.5z"/>
		<path opacity="0.4" fill="#2FDAEB" d="M278.3,359.6c12.7-23.1,30.7-50.2,30.7-50.2s19.8,25.9,32.7,48.4
			c10.5,18.4,27.8,51.9,27.8,51.9s-35.7,3.7-58.6,4.4c-19.5,0.5-58.4-1.7-58.4-1.7S264.3,384.9,278.3,359.6z"/>
		<path opacity="0.4" fill="#2FDAEB" d="M264.6,361.2c8.7-29,22.5-63.8,22.5-63.8s28.5,24.4,48.3,46.6
			c16.2,18.1,43.7,51.7,43.7,51.7s-39.3,12.7-64.9,18.9c-21.8,5.3-66.1,12.1-66.1,12.1S255,393,264.6,361.2z"/>
		<path opacity="0.4" fill="#2FDAEB" d="M252.8,366.6c2.9-34.7,10.1-77.1,10.1-77.1s37.9,20.6,65.5,40.9
			c22.6,16.5,61.5,47.7,61.5,47.7s-41.2,23.7-68.5,36.8c-23.3,11.2-71.5,29.4-71.5,29.4S249.6,404.7,252.8,366.6z"/>
		<path opacity="0.4" fill="#2FDAEB" d="M243.6,375.8c-5-39.7-7.1-89.1-7.1-89.1S284,300.9,320,317c29.4,13.2,80.6,39,80.6,39
			s-40.6,36.5-68.3,57.8c-23.5,18.1-73.4,50.1-73.4,50.1S249.1,419.5,243.6,375.8z"/>
		<path opacity="0.4" fill="#2FDAEB" d="M235.9,389.4c-15.1-43.4-29.3-98.6-29.3-98.6s56.8,4.6,101.1,14.1
			c36.2,7.8,100,24.6,100,24.6s-37,50.8-63,81.3c-22.1,26-70.6,73.9-70.6,73.9S252.5,437.2,235.9,389.4z"/>
		<path opacity="0.4" fill="#2FDAEB" d="M228.8,408.6c-27.4-45.3-56.5-103.9-56.5-103.9s65-8.5,117.1-8.3
			c42.6,0.1,118.3,3.7,118.3,3.7s-29.4,66-51.4,106.5c-18.7,34.6-61.7,100-61.7,100S258.9,458.4,228.8,408.6z"/>
		<path opacity="0.4" fill="#2FDAEB" d="M224.7,432.1c-41.7-44.4-88.4-103.3-88.4-103.3s71.1-25.1,129.8-37.3
			c47.9-10,134-24.1,134-24.1s-17.3,81.2-32.3,132.1c-12.8,43.3-45.5,127.3-45.5,127.3S270.5,480.8,224.7,432.1z"/>
	</g>
	<g>
		<linearGradient id="SVGID_35_" gradientUnits="userSpaceOnUse" x1="662.1943" y1="442.8799" x2="688.1992" y2="442.8799">
			<stop  offset="6.750610e-03" style="stop-color:#2FDAEB"/>
			<stop  offset="1" style="stop-color:#07FAA0"/>
		</linearGradient>
		<path opacity="0.4" fill="url(#SVGID_35_)" d="M687.8,442.8c0.5,6.5,0.3,14.5,0.3,14.5s-7.6-2.7-13.3-5.7
			c-4.6-2.4-12.7-7.1-12.7-7.1s6.9-5.6,11.6-8.8c4-2.7,12.4-7.5,12.4-7.5S687.3,435.7,687.8,442.8z"/>
		<linearGradient id="SVGID_36_" gradientUnits="userSpaceOnUse" x1="656.4053" y1="436.5654" x2="688.6895" y2="436.5654">
			<stop  offset="6.750610e-03" style="stop-color:#2FDAEB"/>
			<stop  offset="1" style="stop-color:#07FAA0"/>
		</linearGradient>
		<path opacity="0.4" fill="url(#SVGID_36_)" d="M684.8,436.4c2.1,7.2,3.9,16.3,3.9,16.3s-9.2-1.3-16.3-3.2c-5.8-1.6-16-4.9-16-4.9
			s6.5-7.9,11-12.6c3.8-4,12.1-11.4,12.1-11.4S682.6,428.4,684.8,436.4z"/>
		<linearGradient id="SVGID_37_" gradientUnits="userSpaceOnUse" x1="651.6084" y1="430.4482" x2="689.8604" y2="430.4482">
			<stop  offset="6.750610e-03" style="stop-color:#2FDAEB"/>
			<stop  offset="1" style="stop-color:#07FAA0"/>
		</linearGradient>
		<path opacity="0.4" fill="url(#SVGID_37_)" d="M681.6,429.8c4,7.6,8.2,17.4,8.2,17.4s-10.6,0.8-19.1,0.3
			c-6.9-0.4-19.2-1.7-19.2-1.7s5.4-10.4,9.3-16.8c3.3-5.4,10.9-15.7,10.9-15.7S677.2,421.5,681.6,429.8z"/>
		<linearGradient id="SVGID_38_" gradientUnits="userSpaceOnUse" x1="648.1543" y1="427.625" x2="691.5234" y2="427.625">
			<stop  offset="6.750610e-03" style="stop-color:#2FDAEB"/>
			<stop  offset="1" style="stop-color:#07FAA0"/>
		</linearGradient>
		<path opacity="0.4" fill="url(#SVGID_38_)" d="M678.1,423.2c6.4,7.6,13.4,17.6,13.4,17.6s-11.8,3.4-21.4,4.9
			c-7.9,1.2-22,2.7-22,2.7s3.6-13,6.4-21.1c2.5-6.9,8.5-20.2,8.5-20.2S671.1,414.9,678.1,423.2z"/>
		<linearGradient id="SVGID_39_" gradientUnits="userSpaceOnUse" x1="645.9326" y1="426.7725" x2="692.9043" y2="426.7725">
			<stop  offset="6.750610e-03" style="stop-color:#2FDAEB"/>
			<stop  offset="1" style="stop-color:#07FAA0"/>
		</linearGradient>
		<path opacity="0.4" fill="url(#SVGID_39_)" d="M673.6,416.4c9,7,19.3,16.6,19.3,16.6s-12.4,6.7-22.9,10.6
			c-8.6,3.2-24.1,8.3-24.1,8.3s0.9-15.5,2.2-25.3c1.1-8.4,4.8-24.8,4.8-24.8S663.8,408.7,673.6,416.4z"/>
		<linearGradient id="SVGID_40_" gradientUnits="userSpaceOnUse" x1="640.5625" y1="427.1836" x2="693.0605" y2="427.1836">
			<stop  offset="6.750610e-03" style="stop-color:#2FDAEB"/>
			<stop  offset="1" style="stop-color:#07FAA0"/>
		</linearGradient>
		<path opacity="0.4" fill="url(#SVGID_40_)" d="M667.4,409.7c11.8,5.7,25.6,14,25.6,14s-12.4,10.5-23.2,17.4
			c-8.9,5.7-25.1,15.1-25.1,15.1s-2.7-17.6-3.6-29c-0.7-9.7-0.6-29-0.6-29S654.5,403.4,667.4,409.7z"/>
		<linearGradient id="SVGID_41_" gradientUnits="userSpaceOnUse" x1="626.7744" y1="428.7588" x2="691.9297" y2="428.7588">
			<stop  offset="6.750610e-03" style="stop-color:#2FDAEB"/>
			<stop  offset="1" style="stop-color:#07FAA0"/>
		</linearGradient>
		<path opacity="0.4" fill="url(#SVGID_41_)" d="M659.7,403.2c14.6,3.6,32.2,9.6,32.2,9.6s-11.4,14.7-22,25.1
			c-8.6,8.5-24.6,22.9-24.6,22.9s-7.3-19.2-11-31.8c-3.2-10.7-7.6-32.5-7.6-32.5S643.7,399.2,659.7,403.2z"/>
		<linearGradient id="SVGID_42_" gradientUnits="userSpaceOnUse" x1="611.624" y1="430.0762" x2="688.8027" y2="430.0762">
			<stop  offset="6.750610e-03" style="stop-color:#2FDAEB"/>
			<stop  offset="1" style="stop-color:#07FAA0"/>
		</linearGradient>
		<path opacity="0.4" fill="url(#SVGID_42_)" d="M650.3,396c17.3,0.6,38.5,3.1,38.5,3.1s-9.3,19.3-18.7,33.5
			c-7.7,11.6-22.2,31.7-22.2,31.7s-12.8-19.9-19.9-33.1c-6.1-11.3-16.3-34.8-16.3-34.8S631.3,395.3,650.3,396z"/>
		<linearGradient id="SVGID_43_" gradientUnits="userSpaceOnUse" x1="595.5029" y1="424.4346" x2="682.9639" y2="424.4346">
			<stop  offset="6.750610e-03" style="stop-color:#2FDAEB"/>
			<stop  offset="1" style="stop-color:#07FAA0"/>
		</linearGradient>
		<path opacity="0.4" fill="url(#SVGID_43_)" d="M638.9,388.5c19.6-3.5,44.1-5.7,44.1-5.7s-5.9,23.9-13,42.2c-6,15.2-6,15.2-17.4,41
			c0,0-19.1-19.3-30.4-32.5c-9.6-11.2-26.7-35.2-26.7-35.2S617.3,392.3,638.9,388.5z"/>
		<linearGradient id="SVGID_44_" gradientUnits="userSpaceOnUse" x1="579.9639" y1="415.0244" x2="674.6572" y2="415.0244">
			<stop  offset="6.750610e-03" style="stop-color:#2FDAEB"/>
			<stop  offset="1" style="stop-color:#07FAA0"/>
		</linearGradient>
		<path opacity="0.4" fill="url(#SVGID_44_)" d="M626.4,381.6c21.2-8.6,48.2-16.9,48.2-16.9s-0.9,28.3-4.6,50.6
			c-3,18.2-9.8,50.2-9.8,50.2s-26.1-17.1-41.9-29.3c-13.5-10.4-38.4-33.3-38.4-33.3S603.1,391,626.4,381.6z"/>
		<linearGradient id="SVGID_45_" gradientUnits="userSpaceOnUse" x1="566.9131" y1="403.0781" x2="672.2441" y2="403.0781">
			<stop  offset="6.750610e-03" style="stop-color:#2FDAEB"/>
			<stop  offset="1" style="stop-color:#07FAA0"/>
		</linearGradient>
		<path opacity="0.4" fill="url(#SVGID_45_)" d="M614.1,375.3c21.8-14.7,50.2-30.6,50.2-30.6s5.8,32.1,6.9,58c1,21.2,1,58.9,1,58.9
			s-33.5-13-54.2-22.9c-17.6-8.4-51.2-28.2-51.2-28.2S590.1,391.4,614.1,375.3z"/>
		<linearGradient id="SVGID_46_" gradientUnits="userSpaceOnUse" x1="556.4844" y1="388.7822" x2="687.1982" y2="388.7822">
			<stop  offset="6.750610e-03" style="stop-color:#2FDAEB"/>
			<stop  offset="1" style="stop-color:#07FAA0"/>
		</linearGradient>
		<path opacity="0.4" fill="url(#SVGID_46_)" d="M601.2,370.4c21-21.8,49.2-46.4,49.2-46.4s14.2,34.7,21.7,63.5
			c6.1,23.6,15.2,66,15.2,66s-40.8-6.6-66.4-12.9c-21.8-5.3-64.3-19.5-64.3-19.5S578,394.4,601.2,370.4z"/>
		<linearGradient id="SVGID_47_" gradientUnits="userSpaceOnUse" x1="550.0771" y1="375.1436" x2="704.8525" y2="375.1436">
			<stop  offset="6.750610e-03" style="stop-color:#2FDAEB"/>
			<stop  offset="1" style="stop-color:#07FAA0"/>
		</linearGradient>
		<path opacity="0.4" fill="url(#SVGID_47_)" d="M588.2,369.9c18.4-29.5,44.2-64,44.2-64s24.2,35.7,39.6,66.3
			c12.5,25,32.9,70.6,32.9,70.6s-47.4,2.3-77.8,1.4c-25.8-0.7-77-6.6-77-6.6S567.9,402.3,588.2,369.9z"/>
		<linearGradient id="SVGID_48_" gradientUnits="userSpaceOnUse" x1="549.1377" y1="375.29" x2="724.4697" y2="375.29">
			<stop  offset="6.750610e-03" style="stop-color:#2FDAEB"/>
			<stop  offset="1" style="stop-color:#07FAA0"/>
		</linearGradient>
		<path opacity="0.4" fill="url(#SVGID_48_)" d="M575.8,373.9c13.7-37.6,34.4-82.5,34.4-82.5s35.8,34.3,60.4,65.1
			c20.1,25.2,53.9,71.5,53.9,71.5s-52.8,13.9-87.1,20.2c-29.2,5.4-88.2,11-88.2,11S560.8,415.2,575.8,373.9z"/>
		<linearGradient id="SVGID_49_" gradientUnits="userSpaceOnUse" x1="553.1475" y1="383.0352" x2="742.9072" y2="383.0352">
			<stop  offset="6.750610e-03" style="stop-color:#2FDAEB"/>
			<stop  offset="1" style="stop-color:#07FAA0"/>
		</linearGradient>
		<path opacity="0.4" fill="url(#SVGID_49_)" d="M562.8,382.4c6.4-45.6,19-101,19-101s48.5,30,83.5,58.8
			c28.6,23.5,77.7,67.6,77.7,67.6s-56.1,28.3-93.2,43.5c-31.6,13-96.6,33.5-96.6,33.5S555.7,432.5,562.8,382.4z"/>
		<linearGradient id="SVGID_50_" gradientUnits="userSpaceOnUse" x1="544.7285" y1="395.8838" x2="756.3213" y2="395.8838">
			<stop  offset="6.750610e-03" style="stop-color:#2FDAEB"/>
			<stop  offset="1" style="stop-color:#07FAA0"/>
		</linearGradient>
		<path opacity="0.4" fill="url(#SVGID_50_)" d="M547.6,396.3c-3.7-52.8-2.8-118.2-2.8-118.2s61.7,22.2,108,46.2
			c37.8,19.6,103.5,57.4,103.5,57.4s-56.3,45.2-94.4,71.3c-32.4,22.2-100.6,60.8-100.6,60.8S551.7,454.3,547.6,396.3z"/>
		<linearGradient id="SVGID_51_" gradientUnits="userSpaceOnUse" x1="501.8984" y1="413.5146" x2="764.5781" y2="413.5146">
			<stop  offset="6.750610e-03" style="stop-color:#2FDAEB"/>
			<stop  offset="1" style="stop-color:#07FAA0"/>
		</linearGradient>
		<path opacity="0.4" fill="url(#SVGID_51_)" d="M533.3,415.2c-16.8-58.5-31.4-132.3-31.4-132.3s74.7,10.2,132.5,26.1
			c47.2,13,130.2,39.9,130.2,39.9s-52.6,64.3-89.2,102.7c-31.2,32.7-98.7,92.4-98.7,92.4S551.7,479.6,533.3,415.2z"/>
	</g>
	<g>
		<linearGradient id="SVGID_52_" gradientUnits="userSpaceOnUse" x1="331.2441" y1="324.6426" x2="373.2881" y2="324.6426">
			<stop  offset="6.750610e-03" style="stop-color:#2FDAEB"/>
			<stop  offset="1" style="stop-color:#07FAA0"/>
		</linearGradient>
		<path opacity="0.4" fill="url(#SVGID_52_)" d="M337.1,325c-3-9.2-5.8-20.7-5.8-20.7s11.9,1.1,21.2,3.3c7.6,1.8,20.9,5.5,20.9,5.5
			s-7.9,10.5-13.4,16.9c-4.7,5.4-15,15.3-15,15.3S340.4,335,337.1,325z"/>
		<linearGradient id="SVGID_53_" gradientUnits="userSpaceOnUse" x1="332.2764" y1="331.8799" x2="381.6523" y2="331.8799">
			<stop  offset="6.750610e-03" style="stop-color:#2FDAEB"/>
			<stop  offset="1" style="stop-color:#07FAA0"/>
		</linearGradient>
		<path opacity="0.4" fill="url(#SVGID_53_)" d="M343.8,333.2c-5.6-9.6-11.5-21.9-11.5-21.9s13.7-1.6,24.6-1.4
			c8.9,0.2,24.8,1.1,24.8,1.1s-6.4,13.7-11.1,22.2c-4,7.2-13.2,20.8-13.2,20.8S350,343.7,343.8,333.2z"/>
		<linearGradient id="SVGID_54_" gradientUnits="userSpaceOnUse" x1="332.5957" y1="334.457" x2="388.0791" y2="334.457">
			<stop  offset="6.750610e-03" style="stop-color:#2FDAEB"/>
			<stop  offset="1" style="stop-color:#07FAA0"/>
		</linearGradient>
		<path opacity="0.4" fill="url(#SVGID_54_)" d="M350.8,341.4c-8.6-9.4-18.2-21.9-18.2-21.9s15-5,27.3-7.4c10.1-2,28.2-4.6,28.2-4.6
			s-3.9,17-7.2,27.6c-2.8,9-9.9,26.5-9.9,26.5S360.3,351.8,350.8,341.4z"/>
		<linearGradient id="SVGID_55_" gradientUnits="userSpaceOnUse" x1="332.5781" y1="334.9404" x2="392.0996" y2="334.9404">
			<stop  offset="6.750610e-03" style="stop-color:#2FDAEB"/>
			<stop  offset="1" style="stop-color:#07FAA0"/>
		</linearGradient>
		<path opacity="0.4" fill="url(#SVGID_55_)" d="M358.3,349.6c-11.9-8.5-25.7-20.3-25.7-20.3s15.6-9.2,28.9-14.9
			c10.9-4.6,30.6-12,30.6-12s-0.3,20-1.5,32.8c-1,10.8-4.8,32.2-4.8,32.2S371.4,359,358.3,349.6z"/>
		<linearGradient id="SVGID_56_" gradientUnits="userSpaceOnUse" x1="333.46" y1="333.8682" x2="402.4766" y2="333.8682">
			<stop  offset="6.750610e-03" style="stop-color:#2FDAEB"/>
			<stop  offset="1" style="stop-color:#07FAA0"/>
		</linearGradient>
		<path opacity="0.4" fill="url(#SVGID_56_)" d="M367.3,357.7c-15.5-6.8-33.8-16.7-33.8-16.7s15.4-14.1,29-23.7
			c11.1-7.8,31.5-20.8,31.5-20.8s4.4,22.6,6.2,37.2c1.5,12.4,2.3,37.4,2.3,37.4S384.3,365.1,367.3,357.7z"/>
		<linearGradient id="SVGID_57_" gradientUnits="userSpaceOnUse" x1="336.6338" y1="330.7861" x2="421.4814" y2="330.7861">
			<stop  offset="6.750610e-03" style="stop-color:#2FDAEB"/>
			<stop  offset="1" style="stop-color:#07FAA0"/>
		</linearGradient>
		<path opacity="0.4" fill="url(#SVGID_57_)" d="M378.7,365c-19-3.9-42-10.7-42-10.7s13.9-19.6,27-33.6
			c10.7-11.4,30.5-30.9,30.5-30.9s10.4,24.4,15.9,40.4c4.6,13.6,11.5,41.5,11.5,41.5S399.6,369.3,378.7,365z"/>
		<linearGradient id="SVGID_58_" gradientUnits="userSpaceOnUse" x1="342.2783" y1="327.4092" x2="441.8916" y2="327.4092">
			<stop  offset="6.750610e-03" style="stop-color:#2FDAEB"/>
			<stop  offset="1" style="stop-color:#07FAA0"/>
		</linearGradient>
		<path opacity="0.4" fill="url(#SVGID_58_)" d="M392.1,371.5c-22.3,0.2-49.8-2-49.8-2s11-25.4,22.3-44.2
			c9.3-15.4,26.9-42.1,26.9-42.1s17.5,24.9,27.5,41.6c8.5,14.2,22.9,44,22.9,44S416.6,371.4,392.1,371.5z"/>
		<linearGradient id="SVGID_59_" gradientUnits="userSpaceOnUse" x1="351.8242" y1="333.6963" x2="463.7148" y2="333.6963">
			<stop  offset="6.750610e-03" style="stop-color:#2FDAEB"/>
			<stop  offset="1" style="stop-color:#07FAA0"/>
		</linearGradient>
		<path opacity="0.4" fill="url(#SVGID_59_)" d="M408.3,378.4c-25.1,5.5-56.5,9.7-56.5,9.7s6.3-31.2,14.5-55.1
			c6.7-19.5,20.2-53.7,20.2-53.7s25.7,23.8,40.9,40.3c12.9,14,36.3,44,36.3,44S435.9,372.3,408.3,378.4z"/>
		<linearGradient id="SVGID_60_" gradientUnits="userSpaceOnUse" x1="366.2041" y1="343.9873" x2="486.2021" y2="343.9873">
			<stop  offset="6.750610e-03" style="stop-color:#2FDAEB"/>
			<stop  offset="1" style="stop-color:#07FAA0"/>
		</linearGradient>
		<path opacity="0.4" fill="url(#SVGID_60_)" d="M427.5,384.9c-26.9,12.2-61.2,24.4-61.2,24.4s-0.4-36.6,3.2-65.4
			c2.9-23.6,9.9-65.3,9.9-65.3s34.6,20.7,55.6,35.5c17.9,12.6,51.3,40.8,51.3,40.8S457,371.5,427.5,384.9z"/>
		<linearGradient id="SVGID_61_" gradientUnits="userSpaceOnUse" x1="368.3359" y1="357.4111" x2="506.8408" y2="357.4111">
			<stop  offset="6.750610e-03" style="stop-color:#2FDAEB"/>
			<stop  offset="1" style="stop-color:#07FAA0"/>
		</linearGradient>
		<path opacity="0.4" fill="url(#SVGID_61_)" d="M447.9,390.4c-27.3,20.1-63.1,42.1-63.1,42.1s-9.2-41-12.1-74.3
			c-2.4-27.2-4.5-75.8-4.5-75.8s43.8,15,71,26.6c23.2,9.9,67.5,33.6,67.5,33.6S478,368.2,447.9,390.4z"/>
		<linearGradient id="SVGID_62_" gradientUnits="userSpaceOnUse" x1="352.6318" y1="374.8643" x2="522.8389" y2="374.8643">
			<stop  offset="6.750610e-03" style="stop-color:#2FDAEB"/>
			<stop  offset="1" style="stop-color:#07FAA0"/>
		</linearGradient>
		<path opacity="0.4" fill="url(#SVGID_62_)" d="M468,394.9c-25.9,29.2-60.9,62.5-60.9,62.5s-20.1-44-31.4-80.7
			c-9.2-30-23.1-84.2-23.1-84.2s52.9,6.4,86.3,13c28.4,5.6,83.9,21.7,83.9,21.7S496.5,362.8,468,394.9z"/>
		<linearGradient id="SVGID_63_" gradientUnits="userSpaceOnUse" x1="334.0752" y1="392.5635" x2="533.8252" y2="392.5635">
			<stop  offset="6.750610e-03" style="stop-color:#2FDAEB"/>
			<stop  offset="1" style="stop-color:#07FAA0"/>
		</linearGradient>
		<path opacity="0.4" fill="url(#SVGID_63_)" d="M488.3,397c-22.2,39-53.5,84.8-53.5,84.8s-33.1-44.7-54.6-83.3
			c-17.5-31.6-46.2-89.2-46.2-89.2s61-5.5,100.1-6c33.3-0.5,99.6,4.3,99.6,4.3S512.7,354.1,488.3,397z"/>
		<linearGradient id="SVGID_64_" gradientUnits="userSpaceOnUse" x1="312.6797" y1="391.46" x2="536.9707" y2="391.46">
			<stop  offset="6.750610e-03" style="stop-color:#2FDAEB"/>
			<stop  offset="1" style="stop-color:#07FAA0"/>
		</linearGradient>
		<path opacity="0.4" fill="url(#SVGID_64_)" d="M507.2,393.1c-15.6,49.2-39.9,108.2-39.9,108.2s-48-42.3-81.3-80.7
			c-27.2-31.4-73.3-89.3-73.3-89.3s67.3-20.7,111.2-30.7c37.4-8.5,113.1-19,113.1-19S524.4,339,507.2,393.1z"/>
		<linearGradient id="SVGID_65_" gradientUnits="userSpaceOnUse" x1="289.9355" y1="382.1357" x2="530.3584" y2="382.1357">
			<stop  offset="6.750610e-03" style="stop-color:#2FDAEB"/>
			<stop  offset="1" style="stop-color:#07FAA0"/>
		</linearGradient>
		<path opacity="0.4" fill="url(#SVGID_65_)" d="M523.5,382.7c-5.8,59.1-19.1,131.3-19.1,131.3c-63.5-35.8-63.5-35.7-110.7-71.3
			c-38.1-28.8-103.8-82.9-103.8-82.9s70.8-39.4,117.8-61.1c40-18.5,122.7-48.4,122.7-48.4S529.9,317.8,523.5,382.7z"/>
		<linearGradient id="SVGID_66_" gradientUnits="userSpaceOnUse" x1="270.9238" y1="366.4971" x2="549.0791" y2="366.4971">
			<stop  offset="6.750610e-03" style="stop-color:#2FDAEB"/>
			<stop  offset="1" style="stop-color:#07FAA0"/>
		</linearGradient>
		<path opacity="0.4" fill="url(#SVGID_66_)" d="M539.1,365.7c7.6,67.8,10,152.2,10,152.2s-80.7-25.3-141.6-53.7
			c-49.8-23.2-136.5-68.5-136.5-68.5s70.2-61.3,117.9-96.9c40.6-30.4,126.4-83.7,126.4-83.7S530.8,291.1,539.1,365.7z"/>
		<linearGradient id="SVGID_67_" gradientUnits="userSpaceOnUse" x1="261.2451" y1="342.7275" x2="603.3467" y2="342.7275">
			<stop  offset="6.750610e-03" style="stop-color:#2FDAEB"/>
			<stop  offset="1" style="stop-color:#07FAA0"/>
		</linearGradient>
		<path opacity="0.4" fill="url(#SVGID_67_)" d="M555.8,340.2c24.8,74.5,47.6,168.8,47.6,168.8s-96.8-9.2-172.2-26.6
			c-61.6-14.2-170-44.4-170-44.4s64.3-85.7,109.4-137.2C409,257,492.8,176.5,492.8,176.5S528.5,258.2,555.8,340.2z"/>
		<linearGradient id="SVGID_68_" gradientUnits="userSpaceOnUse" x1="261.4492" y1="318.0312" x2="663.2275" y2="318.0312">
			<stop  offset="6.750610e-03" style="stop-color:#2FDAEB"/>
			<stop  offset="1" style="stop-color:#07FAA0"/>
		</linearGradient>
		<path opacity="0.4" fill="url(#SVGID_68_)" d="M569.3,307.6c45.7,77.9,93.9,178.5,93.9,178.5s-111.1,12.8-200,11.3
			c-72.6-1.3-201.8-9.3-201.8-9.3s51.8-111.8,90.2-180.5c32.7-58.5,107.7-169.2,107.7-169.2S519.1,222,569.3,307.6z"/>
	</g>
</g>
</svg>
