<?xml version="1.0" encoding="UTF-8" standalone="no"?>
<svg width="275px" height="96px" viewBox="0 0 275 96" version="1.1" xmlns="http://www.w3.org/2000/svg" xmlns:xlink="http://www.w3.org/1999/xlink" xmlns:sketch="http://www.bohemiancoding.com/sketch/ns">
    <!-- Generator: Sketch 3.2.2 (9983) - http://www.bohemiancoding.com/sketch -->
    <title>Slice 1</title>
    <desc>Created with Sketch.</desc>
    <defs>
        <linearGradient x1="-0.00012479409%" y1="50.0001179%" x2="99.999688%" y2="50.0001179%" id="linearGradient-1">
            <stop stop-color="#00D8F0" offset="0%"></stop>
            <stop stop-color="#4D71B3" offset="67.49%"></stop>
            <stop stop-color="#634A99" offset="100%"></stop>
        </linearGradient>
        <linearGradient x1="0.000300726039%" y1="49.9999571%" x2="100.000086%" y2="49.9999571%" id="linearGradient-2">
            <stop stop-color="#00D8F0" offset="0%"></stop>
            <stop stop-color="#EAFF87" offset="100%"></stop>
        </linearGradient>
        <linearGradient x1="0%" y1="49.9990364%" x2="100.000186%" y2="49.9990364%" id="linearGradient-3">
            <stop stop-color="#2FB4E8" offset="0%"></stop>
            <stop stop-color="#07FAA0" offset="100%"></stop>
        </linearGradient>
        <linearGradient x1="-0.00110810998%" y1="49.9998772%" x2="99.9993074%" y2="49.9998772%" id="linearGradient-4">
            <stop stop-color="#EAFF87" offset="0%"></stop>
            <stop stop-color="#07FAA0" offset="100%"></stop>
        </linearGradient>
        <linearGradient x1="4.28919466e-05%" y1="49.9995189%" x2="99.999614%" y2="49.9995189%" id="linearGradient-5">
            <stop stop-color="#16A8CC" offset="0%"></stop>
            <stop stop-color="#2EDBE9" offset="25.07%"></stop>
            <stop stop-color="#07FAA0" offset="100%"></stop>
        </linearGradient>
    </defs>
    <g id="Page-1" stroke="none" stroke-width="1" fill="none" fill-rule="evenodd" sketch:type="MSPage">
        <g id="logo-eyeos2-+-eyeOS" sketch:type="MSLayerGroup" transform="translate(9.000000, 2.000000)">
            <g id="logo-eyeos2" sketch:type="MSShapeGroup">
                <path d="M25.2846464,49.7389661 C25.2846464,44.225671 29.8992367,39.7464752 35.5882596,39.7464752 C41.2759264,39.7464752 45.8859966,44.225671 45.8859966,49.7389661 C45.8859966,55.266517 41.2759264,59.7325535 35.5882596,59.7325535 C29.8992367,59.7327728 25.2846464,55.266517 25.2846464,49.7389661" id="Shape" fill="#5A5A6D"></path>
                <g id="Group">
                    <path d="M15.462652,67.2995718 C8.43793372,62.1352167 3.30465962,54.6820261 1.22743854,46.0848564 C1.09228696,47.285859 1.01860901,48.5039687 1.01860901,49.7389661 C1.01860901,68.231248 16.52149,83.2744856 35.5728912,83.2744856 C36.1288659,83.2744856 36.6843886,83.2578172 37.2392333,83.231718 C27.83422,81.210235 19.9400567,75.2903185 15.462652,67.2995718 L15.462652,67.2995718 Z" id="Shape" fill="url(#linearGradient-1)"></path>
                    <path d="M35.5726651,16.2080522 C41.9702168,16.2080522 47.9627656,17.9108616 53.107114,20.8646789 C52.390223,20.2635196 51.6459853,19.692188 50.8757569,19.1546319 C51.6459853,19.692188 52.390223,20.2635196 53.107114,20.8646789 C53.5631941,21.1258903 54.011138,21.3980679 54.4534317,21.6790183 C65.3453385,25.0754256 73.7552475,33.8302872 76.3977096,44.7467781 C76.868706,42.4127624 77.1220588,40.0026423 77.1220588,37.5346214 C77.1220588,16.9219426 59.9031142,0.21186423 38.661715,0.21186423 C17.4207679,0.21186423 0.201823351,16.9217232 0.201823351,37.5346214 C0.201823351,40.4781305 0.56388495,43.3374204 1.22721254,46.0846371 C3.11119849,29.3129295 17.7945818,16.2080522 35.5726651,16.2080522 L35.5726651,16.2080522 Z" id="Shape"></path>
                    <path d="M15.462652,67.2995718 C12.9266387,62.7740992 11.4856245,57.5864961 11.4856245,52.0725431 C11.4856245,34.4417546 26.213983,20.1490339 44.3821527,20.1490339 C47.6685058,20.1490339 50.8395959,20.6232063 53.8346273,21.4936919 C53.595287,21.2802924 53.3530086,21.0708407 53.107114,20.8648982 C47.9627656,17.9108616 41.9702168,16.2082715 35.5726651,16.2082715 C17.7945818,16.2082715 3.11097248,29.3131488 1.22721254,46.0850757 C3.30465962,54.6820261 8.43793372,62.135436 15.462652,67.2995718 L15.462652,67.2995718 Z" id="Shape" fill="url(#linearGradient-2)"></path>
                    <path d="M53.107114,20.8648982 C53.3530086,21.0708407 53.595287,21.2805117 53.8346273,21.4936919 C54.0411968,21.5535666 54.2482183,21.6151958 54.4534317,21.6792376 C54.011138,21.3980679 53.5631941,21.1261097 53.107114,20.8648982 L53.107114,20.8648982 Z" id="Shape" fill="#2FF4AD"></path>
                    <path d="M76.3977096,44.7467781 C73.9862256,56.6960522 65.6997159,66.5951123 54.576153,71.5103185 C55.783251,74.5299321 54.4807785,78.0099008 51.4536542,79.5322089 C47.0729801,81.7361671 42.1905726,82.9990183 37.2390073,83.2314987 C39.5397483,83.7260679 41.9281797,83.9951749 44.3819267,83.9951749 C62.5498704,83.9951749 77.2782289,69.702893 77.2782289,52.0721044 C77.2784549,49.5501305 76.9672447,47.1003133 76.3977096,44.7467781 L76.3977096,44.7467781 Z" id="Shape"></path>
                    <path d="M54.576153,71.5105379 C49.7249344,73.6541828 44.3398896,74.8578172 38.661715,74.8578172 C29.946472,74.8578172 21.912185,72.041295 15.462652,67.2997911 C19.9400567,75.2905379 27.83422,81.2104543 37.2392333,83.2319373 C42.1905726,82.9992376 47.0732061,81.7366057 51.4538802,79.5326475 C54.4810045,78.0099008 55.783251,74.5299321 54.576153,71.5105379 L54.576153,71.5105379 Z" id="Shape" fill="url(#linearGradient-3)"></path>
                    <path d="M54.4534317,21.6792376 C63.8814977,27.6743812 70.1264953,38.0123029 70.1264953,49.7389661 C70.1264953,49.853671 70.1203931,49.9681567 70.1124829,50.0837389 C70.1393776,50.3081044 70.1511299,50.5357598 70.1511299,50.7623185 C70.1511299,54.3168564 67.1780211,57.2002715 63.51695,57.2002715 C62.8050312,57.2002715 61.9256419,57.0884178 61.4736299,56.8870809 L61.4736299,56.8881775 L61.4736299,56.8870809 C58.761558,56.0516867 56.802086,53.6259948 56.802086,50.7623185 L56.727504,50.6947676 L56.727504,50.6851175 C56.727504,39.275154 47.2458746,29.0556658 35.4885909,29.0556658 C23.7306292,29.0556658 14.2105788,38.3305379 14.2105788,49.7391854 C14.2105788,61.1493681 23.7941369,70.4341097 35.5511946,70.4341097 C39.0111203,70.4341097 42.3114858,69.660564 45.3530745,68.1266319 C48.5989725,66.4948825 52.5976965,67.7268094 54.2771471,70.8738486 C54.388342,71.0828616 54.4886887,71.2958225 54.5741189,71.5103185 C65.6974559,66.5951123 73.9853216,56.6960522 76.3963535,44.7467781 C73.7536654,33.8305065 65.3455645,25.0756449 54.4534317,21.6792376 L54.4534317,21.6792376 Z" id="Shape"></path>
                    <path d="M64.196098,44.3609922 C64.196098,48.8184752 63.2276624,53.0561984 61.4840261,56.8870809 C62.1263352,57.0884178 62.8100033,57.2002715 63.5221482,57.2002715 C67.1832192,57.2002715 70.1513559,54.3170757 70.1513559,50.7623185 C70.1513559,50.5357598 70.1396036,50.3083238 70.1127089,50.0837389 C70.1203931,49.9681567 70.1267213,49.853671 70.1267213,49.7389661 C70.1267213,38.0120836 63.8817237,27.6743812 54.4536577,21.6792376 C54.2484443,21.6151958 54.0414228,21.5537859 53.8348533,21.4936919 C60.2030242,27.1659948 64.196098,35.3104856 64.196098,44.3609922 L64.196098,44.3609922 Z" id="Shape" fill="url(#linearGradient-4)"></path>
                    <path d="M35.5728912,70.4341097 C23.8153814,70.4341097 14.2532939,61.1493681 14.2532939,49.7391854 C14.2532939,38.3305379 23.7306292,29.0556658 35.4885909,29.0556658 C47.2458746,29.0556658 56.727504,39.275154 56.727504,50.6851175 C56.8075102,53.6262141 58.7787344,56.051906 61.441989,56.8873003 C63.1858513,53.0564178 64.1753055,48.8186945 64.1753055,44.3612115 C64.1753055,35.310705 60.1921759,27.1664334 53.823779,21.4939112 C50.8291996,20.6234256 47.6635337,20.1492533 44.3767286,20.1492533 C26.2087849,20.1492533 11.4833645,34.4419739 11.4833645,52.0727624 C11.4833645,57.5869347 12.9255087,62.7743185 15.4612959,67.3000104 C21.9103769,72.0415144 29.946246,74.8580366 38.661037,74.8580366 C44.3394376,74.8580366 49.7249344,73.6546214 54.576153,71.5107572 C54.4900447,71.2960418 54.3937662,71.0833003 54.2825712,70.8742872 C52.6031207,67.7268094 48.6095948,66.4948825 45.3634707,68.1266319 C42.3221081,69.6603446 39.0321389,70.4341097 35.5728912,70.4341097 Z" id="Shape" fill="url(#linearGradient-5)"></path>
                </g>
            </g>
            <path d="M105.145482,39.5489961 C96.3285325,39.5489961 90.6342529,43.9056063 90.6342529,53.2844198 L90.6342529,56.3098435 C90.6342529,66.4147588 95.3488715,71.1344198 104.961795,71.1344198 C109.002897,71.1344198 112.921541,70.771369 116.472812,70.2267927 C116.901414,70.1662842 117.0851,70.0452673 117.0851,69.7427249 L117.0851,64.1759452 C117.0851,63.8128944 116.778956,63.7523859 116.472812,63.7523859 L116.289126,63.8734029 C114.452261,63.9944198 111.819422,64.3574707 109.247812,64.3574707 C102.451414,64.3574707 100.247177,63.0262842 99.6961173,58.3066232 L116.105439,58.3066232 C117.207558,58.3066232 117.758617,57.8225554 117.758617,56.9149283 L117.758617,52.0137419 C117.758617,43.7845893 113.533829,39.5489961 105.145482,39.5489961 L105.145482,39.5489961 Z M109.431499,52.921369 L99.5736597,52.921369 L99.5736597,51.650691 C99.5736597,47.0520469 101.471753,45.5998435 104.839338,45.5998435 C108.268151,45.5998435 109.431499,47.6571317 109.431499,51.1666232 L109.431499,52.921369 Z M142.433829,39.9120469 C141.576626,39.9120469 141.086795,40.4566232 141.086795,41.1827249 L141.086795,59.5773012 C139.494846,59.8798435 137.902897,60.0008605 136.617092,60.0008605 C133.433194,60.0008605 131.167727,58.9722164 131.167727,55.4022164 L131.167727,41.2432334 C131.167727,40.5171317 130.616668,39.9120469 129.759465,39.9120469 L123.514126,39.9120469 C122.656922,39.9120469 122.228321,40.4566232 122.228321,41.1827249 L122.228321,57.2174707 C122.228321,64.660013 126.820482,66.8988266 133.127049,66.8988266 C135.514973,66.8988266 138.27027,66.7778096 141.025566,66.3542503 C140.658194,70.0452673 138.209041,71.0134029 132.269846,71.0134029 C129.147177,71.0134029 125.963278,70.771369 124.126414,70.4688266 L123.82027,70.4688266 C123.207982,70.4688266 123.024295,70.771369 123.024295,71.3764537 L123.024295,75.7935724 C123.024295,76.5801825 123.330439,76.8827249 124.126414,77.0642503 C126.759253,77.7298435 131.167727,77.911369 134.65777,77.911369 C144.821753,77.911369 149.964973,74.2808605 149.964973,64.5995046 L149.964973,41.2432334 C149.964973,40.5171317 149.475143,39.9120469 148.617939,39.9120469 L142.433829,39.9120469 Z M168.884677,39.5489961 C160.067727,39.5489961 154.373448,43.9056063 154.373448,53.2844198 L154.373448,56.3098435 C154.373448,66.4147588 159.088066,71.1344198 168.70099,71.1344198 C172.742092,71.1344198 176.660736,70.771369 180.212007,70.2267927 C180.640609,70.1662842 180.824295,70.0452673 180.824295,69.7427249 L180.824295,64.1759452 C180.824295,63.8128944 180.518151,63.7523859 180.212007,63.7523859 L180.028321,63.8734029 C178.191456,63.9944198 175.558617,64.3574707 172.987007,64.3574707 C166.190609,64.3574707 163.986372,63.0262842 163.435312,58.3066232 L179.844634,58.3066232 C180.946753,58.3066232 181.497812,57.8225554 181.497812,56.9149283 L181.497812,52.0137419 C181.497812,43.7845893 177.273024,39.5489961 168.884677,39.5489961 L168.884677,39.5489961 Z M173.170694,52.921369 L163.312855,52.921369 L163.312855,51.650691 C163.312855,47.0520469 165.210948,45.5998435 168.578533,45.5998435 C172.007346,45.5998435 173.170694,47.6571317 173.170694,51.1666232 L173.170694,52.921369 Z M202.193151,32.65103 C191.478109,32.65103 185.293999,36.7656063 185.293999,48.0201825 L185.293999,55.8257757 C185.293999,67.1408605 191.478109,71.1949283 202.193151,71.1949283 C212.969422,71.1949283 219.214761,67.1408605 219.214761,55.8257757 L219.214761,48.0201825 C219.214761,36.7656063 212.969422,32.65103 202.193151,32.65103 L202.193151,32.65103 Z M202.193151,39.5489961 C207.213914,39.5489961 209.785524,41.3037419 209.785524,47.4756063 L209.785524,56.3098435 C209.785524,62.5422164 207.213914,64.2969622 202.193151,64.2969622 C197.294846,64.2969622 194.662007,62.5422164 194.662007,56.3098435 L194.662007,47.4756063 C194.662007,41.3037419 197.294846,39.5489961 202.193151,39.5489961 L202.193151,39.5489961 Z M238.563066,32.5905215 C228.337855,32.5905215 222.766033,36.8261147 222.766033,43.1189961 C222.766033,48.6857757 226.256075,51.9532334 231.276838,53.8289961 L239.297812,56.9149283 C241.563278,57.7620469 243.03277,58.9722164 243.03277,60.3639113 C243.03277,62.5422164 240.277473,64.2969622 233.297388,64.2969622 C229.746117,64.2969622 225.949931,63.8128944 223.868151,63.4498435 L223.684465,63.4498435 C223.133405,63.4498435 222.766033,63.7523859 222.766033,64.2969622 L222.766033,68.1089961 C222.766033,68.8956063 222.949719,69.4401825 223.990609,69.8032334 C227.235736,70.8318774 232.623872,71.2554368 235.930227,71.2554368 C248.543363,71.2554368 252.462007,66.2332334 252.462007,59.2747588 C252.462007,54.0105215 249.339338,51.1666232 243.767516,48.9883181 L235.685312,45.781369 C233.72599,44.9947588 232.011583,43.9056063 232.011583,42.2718774 C232.011583,40.2145893 235.501626,39.4884876 240.338702,39.4884876 C244.134888,39.4884876 247.869846,39.8515385 249.829168,40.2750978 L250.012855,40.2750978 C250.625143,40.2750978 250.931287,39.9725554 250.931287,39.4279791 L250.931287,35.3739113 C250.931287,34.4662842 250.441456,34.1032334 249.523024,33.8611995 C246.339126,32.9535724 241.99188,32.5905215 238.563066,32.5905215 L238.563066,32.5905215 Z" id="eweOS" fill="#49495F" sketch:type="MSShapeGroup"></path>
        </g>
    </g>
</svg>